<svg xmlns="http://www.w3.org/2000/svg" xmlns:xlink="http://www.w3.org/1999/xlink" width="192" height="192" viewBox="0 0 192 192"><defs><symbol id="1fbd04aa-66bc-49b6-9118-9247aa4b0a7a" data-name="3G_ic_mid" viewBox="0 0 192 192"><rect width="192" height="192" fill="none"/><path d="M96,20A76,76,0,1,1,20,96,76.09,76.09,0,0,1,96,20m0-4a80,80,0,1,0,80,80A80,80,0,0,0,96,16Z" fill="#6d6a69"/><g id="f7eb705d-b9e5-4712-805d-447cc28129e0" data-name="ICON"><path d="M66.68,91.36A20.38,20.38,0,0,1,70.5,91C80.17,91,88,97.72,88,106s-7.84,16-17.5,16A16.35,16.35,0,0,1,56,114" fill="none" stroke="#e60000" stroke-linecap="round" stroke-linejoin="round" stroke-width="4"/><polyline points="56 72 86 72 66.63 91.37" fill="none" stroke="#e60000" stroke-linecap="round" stroke-linejoin="round" stroke-width="4"/><path d="M122,98h14v12a9.56,9.56,0,0,1-7,9.5c-8.28,2.26-25,3.73-25-23.5,0-29.5,26.56-25.9,30.5-18.5" fill="none" stroke="#e60000" stroke-linecap="round" stroke-linejoin="round" stroke-width="4"/></g></symbol></defs><title>3g-mid</title><g id="d5d14267-3ed3-4bba-9b27-7221ad1dbb95" data-name="ICON"><use id="5ea97228-4a30-444c-b586-f9bb7bc478d3" data-name="3G_ic_mid" width="192" height="192" transform="translate(0 0)" xlink:href="#1fbd04aa-66bc-49b6-9118-9247aa4b0a7a"/></g></svg>