<svg xmlns="http://www.w3.org/2000/svg" xmlns:xlink="http://www.w3.org/1999/xlink" width="192" height="192" viewBox="0 0 192 192"><defs><symbol id="ea0fe969-9adb-4124-8db1-d81a18f41f15" data-name="4G_ic_mid" viewBox="0 0 192 192"><rect width="192" height="192" fill="none"/><g id="7f33a742-bb09-4ca7-92d2-87cbcef25b5b" data-name="3G_ic_mid"><path d="M96,20A76,76,0,1,1,20,96,76.09,76.09,0,0,1,96,20m0-4a80,80,0,1,0,80,80A80,80,0,0,0,96,16Z" fill="#6d6a69"/></g><g id="f3eab2dd-29f4-4abc-903f-1f8f855aee96" data-name="ICON"><path d="M122,98h14v12a9.56,9.56,0,0,1-7,9.5c-8.28,2.26-25,3.73-25-23.5,0-29.5,26.56-25.9,30.5-18.5" fill="none" stroke="#e60000" stroke-linecap="round" stroke-linejoin="round" stroke-width="4"/><line x1="80" y1="72" x2="80" y2="122" fill="none" stroke="#e60000" stroke-linecap="round" stroke-linejoin="round" stroke-width="4"/><polyline points="88 108 54 108 80 72" fill="none" stroke="#e60000" stroke-linecap="round" stroke-linejoin="round" stroke-width="4"/></g></symbol></defs><title>4g-mid</title><g id="092b66c1-4401-4253-a16f-aca141d72255" data-name="ICON"><use id="1fa42845-e266-4b07-b423-969eb3a4cf15" data-name="4G_ic_mid" width="192" height="192" transform="translate(0 0)" xlink:href="#ea0fe969-9adb-4124-8db1-d81a18f41f15"/></g></svg>