<svg xmlns="http://www.w3.org/2000/svg" xmlns:xlink="http://www.w3.org/1999/xlink" width="192" height="192" viewBox="0 0 192 192"><defs><symbol id="e6863f34-b973-4c3d-baf2-5a54b298efad" data-name="4G+_ic_mid" viewBox="0 0 192 192"><rect width="192" height="192" fill="none"/><g id="ada5c556-169d-44e7-82b9-c64c07572122" data-name="3G_ic_mid"><path d="M96,20A76,76,0,1,1,20,96,76.09,76.09,0,0,1,96,20m0-4a80,80,0,1,0,80,80A80,80,0,0,0,96,16Z" fill="#6d6a69"/></g><g id="56c9cb96-6fc1-47a2-9e4c-600ac1b3d5f3" data-name="ICON"><path d="M106,98h14v12a9.56,9.56,0,0,1-7,9.5c-8.28,2.26-25,3.73-25-23.5,0-29.5,26.56-25.9,30.5-18.5" fill="none" stroke="#e60000" stroke-linecap="round" stroke-linejoin="round" stroke-width="4"/><line x1="64" y1="72" x2="64" y2="122" fill="none" stroke="#e60000" stroke-linecap="round" stroke-linejoin="round" stroke-width="4"/><polyline points="72 108 38 108 64 72" fill="none" stroke="#e60000" stroke-linecap="round" stroke-linejoin="round" stroke-width="4"/><line x1="134" y1="96" x2="158" y2="96" fill="none" stroke="#e60000" stroke-linecap="round" stroke-linejoin="round" stroke-width="4"/><line x1="146" y1="84" x2="146" y2="108" fill="none" stroke="#e60000" stroke-linecap="round" stroke-linejoin="round" stroke-width="4"/></g></symbol></defs><title>4g-plus-mid</title><g id="16e5c105-0467-438b-ba8d-9a15935ec055" data-name="ICON"><use id="6d23597a-2419-464f-a1b9-878886e923bc" data-name="4G+_ic_mid" width="192" height="192" transform="translate(0 0)" xlink:href="#e6863f34-b973-4c3d-baf2-5a54b298efad"/></g></svg>