<svg id="431b2068-24e3-4d40-a6c3-386ec98fd07f" data-name="ICON" xmlns="http://www.w3.org/2000/svg" width="192" height="192" viewBox="0 0 192 192"><title>4g-plus-plus-mid</title><g id="d6fc5edf-5279-4bf2-89a5-28e872a724d4" data-name="Business_ic_mid"><rect width="192" height="192" fill="none"/><path d="M96,20A76,76,0,1,1,20,96,76.09,76.09,0,0,1,96,20m0-4a80,80,0,1,0,80,80A80,80,0,0,0,96,16Z" transform="translate(0 0)" fill="#6d6a69"/><path d="M88,96h12v12.33c0,4.78-2.85,7.77-5.8,8.66-6.86,2.06-20.71,3.4-20.71-21.41,0-26.88,22-23.59,25.27-16.85" transform="translate(0 0)" fill="none" stroke="#e60000" stroke-linecap="round" stroke-linejoin="round" stroke-width="4"/><line x1="56" y1="74" x2="56" y2="118" fill="none" stroke="#e60000" stroke-linecap="round" stroke-linejoin="round" stroke-width="4"/><polyline points="63 106 34.5 106 56.04 74" fill="none" stroke="#e60000" stroke-linecap="round" stroke-linejoin="round" stroke-width="4"/><line x1="112" y1="96" x2="132" y2="96" fill="none" stroke="#e60000" stroke-linecap="round" stroke-linejoin="round" stroke-width="4"/><line x1="122" y1="86" x2="122" y2="106" fill="none" stroke="#e60000" stroke-linecap="round" stroke-linejoin="round" stroke-width="4"/><line x1="140" y1="96" x2="160" y2="96" fill="none" stroke="#e60000" stroke-linecap="round" stroke-linejoin="round" stroke-width="4"/><line x1="150" y1="86" x2="150" y2="106" fill="none" stroke="#e60000" stroke-linecap="round" stroke-linejoin="round" stroke-width="4"/></g></svg>