<svg id="518466eb-656f-4061-93a4-3294ff5d2435" data-name="ICON" xmlns="http://www.w3.org/2000/svg" width="192" height="192" viewBox="0 0 192 192"><title>apps-mid</title><g id="bff60dc7-d938-4e21-8f6f-fe3efe21f526" data-name="Apps_ic_mid"><path id="be3a9362-89c3-4d1c-944e-8225ed7fb92c" data-name="&lt;Path&gt;" d="M82.39,150H45.66a6.59,6.59,0,0,1-5.86-3,6.41,6.41,0,0,1,.14-6.53l18.41-34.81a6.14,6.14,0,0,1,11.15,0l18.61,34.8a6.41,6.41,0,0,1,.15,6.53A6.6,6.6,0,0,1,82.39,150Z" fill="none" stroke="#666" stroke-linecap="round" stroke-linejoin="round" stroke-width="4"/><path id="397b2cae-0b43-4c5d-9920-9a777fa719b8" data-name="&lt;Path&gt;" d="M64,85.92A21.88,21.88,0,1,1,85.92,64,21.9,21.9,0,0,1,64,85.92Z" fill="none" stroke="#666" stroke-linecap="round" stroke-linejoin="round" stroke-width="4"/><polygon points="127.99 102.08 151.9 121.21 142.34 149.9 113.65 149.9 104.08 121.21 127.99 102.08" fill="none" stroke="#e60000" stroke-linecap="round" stroke-linejoin="round" stroke-width="4"/><rect x="106.12" y="42" width="43.93" height="43.93" rx="9.76" ry="9.76" fill="none" stroke="#666" stroke-linecap="round" stroke-linejoin="round" stroke-width="4"/><rect width="192" height="192" fill="none"/><rect x="26" y="26" width="140" height="140" rx="12" ry="12" fill="none" stroke="#666" stroke-linecap="round" stroke-linejoin="round" stroke-width="4"/></g></svg>