<svg id="ee3eaf45-67a0-48f5-ad5e-410b6a4b1bd6" data-name="52a65716-0c20-4557-a4ef-109849742486" xmlns="http://www.w3.org/2000/svg" width="96" height="160" viewBox="0 0 96 160"><title>bill-pay-phone-mid</title><path d="M108,160H84a2,2,0,0,1,0-4h24a2,2,0,0,1,0,4Z" transform="translate(-48 -16)" fill="#666"/><path d="M128,176H64a16,16,0,0,1-16-16V32A16,16,0,0,1,64,16h64a16,16,0,0,1,16,16V160A16,16,0,0,1,128,176ZM64,20A12,12,0,0,0,52,32V160a12,12,0,0,0,12,12h64a12,12,0,0,0,12-12V32a12,12,0,0,0-12-12Z" transform="translate(-48 -16)" fill="#666"/><path d="M126,110H90a2,2,0,0,1,0-4h36a2,2,0,0,1,0,4Z" transform="translate(-48 -16)" fill="#666"/><path d="M74,110H66a2,2,0,0,1,0-4h8a2,2,0,0,1,0,4Z" transform="translate(-48 -16)" fill="#666"/><path d="M126,62H90a2,2,0,0,1,0-4h36a2,2,0,0,1,0,4Z" transform="translate(-48 -16)" fill="#e60000"/><path d="M74,62H66a2,2,0,0,1,0-4h8a2,2,0,0,1,0,4Z" transform="translate(-48 -16)" fill="#e60000"/><path d="M126,86H90a2,2,0,0,1,0-4h36a2,2,0,0,1,0,4Z" transform="translate(-48 -16)" fill="#6d6968"/><path d="M74,86H66a2,2,0,0,1,0-4h8a2,2,0,0,1,0,4Z" transform="translate(-48 -16)" fill="#6d6968"/></svg>