<svg xmlns="http://www.w3.org/2000/svg" xmlns:xlink="http://www.w3.org/1999/xlink" width="192" height="192" viewBox="0 0 192 192"><defs><symbol id="ccb8df89-6530-491d-92a7-d08cbb8638b9" data-name="Bill_or_Report_ic_mid" viewBox="0 0 192 192"><line id="4d17713c-039e-449c-9341-ad872c961f15" data-name="&lt;Pfad&gt;" x1="126" y1="134" x2="90" y2="134" fill="none" stroke="#666" stroke-linecap="round" stroke-miterlimit="10" stroke-width="4"/><line id="5fcc210b-0b37-4c75-b302-68103b9e3815" data-name="&lt;Pfad&gt;" x1="74" y1="134" x2="66" y2="134" fill="none" stroke="#666" stroke-linecap="round" stroke-miterlimit="10" stroke-width="4"/><line id="41ae1070-b1a8-44cb-ab9b-87c891bde935" data-name="&lt;Pfad&gt;" x1="126" y1="86" x2="90" y2="86" fill="none" stroke="#e60000" stroke-linecap="round" stroke-miterlimit="10" stroke-width="4"/><line id="d9b92f3e-d51a-4d01-b27d-ae83bd7ade68" data-name="&lt;Pfad&gt;" x1="74" y1="86" x2="66" y2="86" fill="none" stroke="#e60000" stroke-linecap="round" stroke-miterlimit="10" stroke-width="4"/><line id="89677124-0fa5-41e9-b4d9-2997d59006b2" data-name="&lt;Pfad&gt;" x1="126" y1="110" x2="90" y2="110" fill="none" stroke="#6d6968" stroke-linecap="round" stroke-miterlimit="10" stroke-width="4"/><line id="6b5f251d-61fa-403d-a875-222d85e64b72" data-name="&lt;Pfad&gt;" x1="74" y1="110" x2="66" y2="110" fill="none" stroke="#6d6968" stroke-linecap="round" stroke-miterlimit="10" stroke-width="4"/><g id="4326c31f-bf60-43be-8b69-bf834a953535" data-name="File_pdf_ic 2"><rect width="192" height="192" fill="none"/></g><g id="e14c9097-1370-41ed-b1d3-cd2e0d60e80f" data-name="Document_ic"><path d="M114,18H56c-6.63,0-14,7.37-14,14V160a14,14,0,0,0,14,14h80a14,14,0,0,0,14-14V54Z" fill="none" stroke="#666" stroke-linejoin="round" stroke-width="4"/><path d="M114,18V50a4,4,0,0,0,4,4h32" fill="none" stroke="#666" stroke-linejoin="round" stroke-width="4"/></g></symbol></defs><title>bill-or-report-mid</title><g id="77ad5a6d-ff44-4f45-b230-9579edd05bb4" data-name="ICON"><use id="8077dc45-6a01-4fe9-a5cb-cd3696d39551" data-name="Bill_or_Report_ic_mid" width="192" height="192" transform="translate(0 0)" xlink:href="#ccb8df89-6530-491d-92a7-d08cbb8638b9"/></g></svg>