<svg id="a01fe510-8a8a-40c8-a991-4c35bc455fd0" data-name="ICON" xmlns="http://www.w3.org/2000/svg" width="192" height="192" viewBox="0 0 192 192"><title>biometric-authentication-mid</title><rect width="192" height="192" fill="none"/><path d="M95.86,95.95c0,37,4.11,45.21-24.66,74" transform="translate(0 0)" fill="none" stroke="#666" stroke-linecap="round" stroke-linejoin="round" stroke-width="4.11"/><path d="M22.38,87.35a74.43,74.43,0,0,0-.5,8.6c0,5,.06,9.39.12,13.28,0,.64,0,1.42,0,2.27a6.92,6.92,0,0,1-2,4.94l0,0" transform="translate(0 0)" fill="none" stroke="#666" stroke-linecap="round" stroke-linejoin="round" stroke-width="4.11"/><path d="M147.65,43.18A73.93,73.93,0,0,0,27.58,67.48" transform="translate(0 0)" fill="none" stroke="#666" stroke-linecap="round" stroke-linejoin="round" stroke-width="4.11"/><path d="M169.84,124c.19-5.54.18-11.2.09-17-.05-3.51-.1-7.14-.1-11a73.52,73.52,0,0,0-9.69-36.57" transform="translate(0 0)" fill="none" stroke="#666" stroke-linecap="round" stroke-linejoin="round" stroke-width="4.11"/><path d="M137.12,162.5c7.79-17.72,8.46-34.54,8.16-55.13,0-3.4-.1-6.9-.11-10.69,0-27.3-22.48-50.29-49.77-50A49.37,49.37,0,0,0,46.54,95.95c0,4.83.06,9.12.12,12.9,0,2.19.07,4.7.08,7.06a20.55,20.55,0,0,1-5.44,14c-1.33,1.45-3,3.16-5,5.16a49.47,49.47,0,0,0-5,5.92" transform="translate(0 0)" fill="none" stroke="#666" stroke-linecap="round" stroke-linejoin="round" stroke-width="4.11"/><path d="M47.72,162.43" transform="translate(0 0)" fill="none" stroke="#666" stroke-linecap="round" stroke-linejoin="round" stroke-width="4.11"/><path d="M119.83,133c.93-7.6.94-15.76.8-25.27-.05-3.71-.11-7.55-.11-11.81a24.66,24.66,0,1,0-49.32,0c0,4.63.06,8.83.12,12.54.18,12.38.2,18.54-1.39,23.14-1.72,5-6.7,11.4-16.16,20.86a24.44,24.44,0,0,0-4.69,6.57" transform="translate(0 0)" fill="none" stroke="#e60000" stroke-linecap="round" stroke-linejoin="round" stroke-width="4.11"/><path d="M101.08,173.8a90.43,90.43,0,0,0,13.49-21.07" transform="translate(0 0)" fill="none" stroke="#666" stroke-linecap="round" stroke-linejoin="round" stroke-width="4.11"/></svg>