<svg xmlns="http://www.w3.org/2000/svg" xmlns:xlink="http://www.w3.org/1999/xlink" width="192" height="192" viewBox="0 0 192 192"><defs><symbol id="fd29c4b4-eded-4a4f-835e-2f58e81869a4" data-name="Birthday_greeting_ic_mid" viewBox="0 0 192 192"><path id="5829e93f-9e91-41dc-b3b7-3366a2a597b5" data-name="&lt;Pfad&gt;" d="M44,68c-6,2.69-10,8.54-10,12,0,9.42,28.87,22,62,22s62-12.58,62-22c0-3.46-4-9.31-10-12" fill="none" stroke="#666" stroke-linecap="round" stroke-linejoin="round" stroke-width="4"/><line id="7e657f5f-41f5-4f2c-96cc-ea554e44df73" data-name="&lt;Pfad&gt;" x1="158" y1="154" x2="158" y2="80" fill="none" stroke="#666" stroke-linecap="round" stroke-linejoin="round" stroke-width="4"/><line id="4034a78b-46d6-4d4e-992f-da0610b81318" data-name="&lt;Pfad&gt;" x1="34" y1="154" x2="34" y2="80" fill="none" stroke="#666" stroke-linecap="round" stroke-linejoin="round" stroke-width="4"/><path id="c1532053-701e-4e09-9999-dd1f44fb134e" data-name="&lt;Pfad&gt;" d="M34,118c0,9.42,28.87,20,62,20s62-10.58,62-20" fill="none" stroke="#666" stroke-linecap="round" stroke-linejoin="round" stroke-width="4"/><path id="b69dd2ca-553d-446d-9716-8cb00eeb5887" data-name="&lt;Pfad&gt;" d="M34,154c0,9.42,28.87,20,62,20s62-10.58,62-20" fill="none" stroke="#666" stroke-linecap="round" stroke-linejoin="round" stroke-width="4"/><path id="bd42d381-481e-4eb7-91f5-cda68dd53ad3" data-name="&lt;Pfad&gt;" d="M68,43" fill="none" stroke="#6d6968" stroke-linecap="round" stroke-linejoin="round" stroke-width="4"/><path id="d3e66c3f-2a43-4037-87a6-c6b46d05700a" data-name="&lt;Pfad&gt;" d="M68,74" fill="none" stroke="#6d6968" stroke-linecap="round" stroke-linejoin="round" stroke-width="4"/><line id="3037c041-e474-4b64-80d3-441a9362bf01" data-name="&lt;Pfad&gt;" x1="96" y1="76" x2="96" y2="44" fill="none" stroke="#e60000" stroke-linecap="round" stroke-linejoin="round" stroke-width="8"/><line id="7ed83cd1-b887-48ef-b6d1-f41455cdfc43" data-name="&lt;Pfad&gt;" x1="68" y1="68" x2="68" y2="36" fill="none" stroke="#e60000" stroke-linecap="round" stroke-linejoin="round" stroke-width="8"/><line id="0b248926-ec80-4849-a731-26113f5b935d" data-name="&lt;Pfad&gt;" x1="124" y1="68" x2="124" y2="36" fill="none" stroke="#e60000" stroke-linecap="round" stroke-linejoin="round" stroke-width="8"/><line id="8026dcf1-c2d0-4876-8a0b-9b0c53e18aaf" data-name="&lt;Pfad&gt;" x1="96" y1="32" x2="96" y2="28" fill="none" stroke="#666" stroke-linecap="round" stroke-linejoin="round" stroke-width="8"/><line id="85a7f038-1c60-4dae-98ea-6df1394aaac5" data-name="&lt;Pfad&gt;" x1="68" y1="24" x2="68" y2="20" fill="none" stroke="#666" stroke-linecap="round" stroke-linejoin="round" stroke-width="8"/><line id="de51202f-650f-42c4-a64c-523c9377700a" data-name="&lt;Pfad&gt;" x1="124" y1="24" x2="124" y2="20" fill="none" stroke="#666" stroke-linecap="round" stroke-linejoin="round" stroke-width="8"/><rect width="192" height="192" fill="none"/></symbol></defs><title>birthday-greeting-mid</title><g id="f90a04b1-8eea-480b-918c-7df16a5b80f1" data-name="ICON"><use id="0dbc532f-1990-4990-9a0d-f64e4b85b4d1" data-name="Birthday_greeting_ic_mid" width="192" height="192" transform="translate(0 0)" xlink:href="#fd29c4b4-eded-4a4f-835e-2f58e81869a4"/></g></svg>