<svg id="ae8463a2-81f5-4e7e-b730-72807e327d0d" data-name="ICON" xmlns="http://www.w3.org/2000/svg" width="192" height="192" viewBox="0 0 192 192"><title>vodafone-bonus-mid</title><g id="e3f87cd8-760f-4d78-b932-648dfd61b34d" data-name="Business_ic_mid"><rect width="192" height="192" fill="none"/><rect width="192" height="192" fill="none"/><rect x="26" y="94" width="140" height="72" fill="none" stroke="#666" stroke-linecap="round" stroke-linejoin="round" stroke-width="4"/><rect x="18" y="66" width="156" height="28" fill="none" stroke="#666" stroke-linecap="round" stroke-linejoin="round" stroke-width="4"/><line x1="102" y1="66" x2="102" y2="166" fill="none" stroke="#e60000" stroke-linecap="round" stroke-linejoin="round" stroke-width="4"/><line x1="90" y1="66" x2="90" y2="166" fill="none" stroke="#e60000" stroke-linecap="round" stroke-linejoin="round" stroke-width="4"/><path d="M58.9,53.31C65.43,59.56,95.82,66,95.82,66S89.09,36.93,82.56,30.69a17.27,17.27,0,0,0-23.66,0A15.51,15.51,0,0,0,58.9,53.31Z" fill="none" stroke="#e60000" stroke-linecap="round" stroke-linejoin="round" stroke-width="4"/><path d="M133.1,53.31C126.57,59.56,96.18,66,96.18,66s6.73-29.07,13.26-35.31a17.27,17.27,0,0,1,23.66,0A15.51,15.51,0,0,1,133.1,53.31Z" fill="none" stroke="#e60000" stroke-linecap="round" stroke-linejoin="round" stroke-width="4"/><rect width="192" height="192" fill="none"/><rect width="192" height="192" fill="none"/></g></svg>