<svg xmlns="http://www.w3.org/2000/svg" xmlns:xlink="http://www.w3.org/1999/xlink" width="192" height="192" viewBox="0 0 192 192"><defs><symbol id="7160884c-91a4-4290-853a-c6e48c7dc7fe" data-name="Calendar_ic_mid" viewBox="0 0 192 192"><line x1="164" y1="68" x2="28" y2="68" fill="none" stroke="#e60000" stroke-miterlimit="10" stroke-width="8"/><line id="c54e50db-abcb-4519-8c53-99d555832166" data-name="&lt;Pfad&gt;" x1="66" y1="18" x2="66" y2="46" fill="none" stroke="#666" stroke-linecap="round" stroke-miterlimit="10" stroke-width="4"/><line id="245d9534-736c-463e-9489-8cff2d409de9" data-name="&lt;Pfad&gt;" x1="126" y1="18" x2="126" y2="46" fill="none" stroke="#666" stroke-linecap="round" stroke-miterlimit="10" stroke-width="4"/><rect width="192" height="192" fill="none"/><rect x="26" y="34" width="140" height="140" rx="12" ry="12" fill="none" stroke="#666" stroke-linecap="round" stroke-miterlimit="10" stroke-width="4"/><g id="c4f90de4-bc6f-469b-a9f1-3585684236ca" data-name="ICON"><path d="M72.68,115.36A20.38,20.38,0,0,1,76.5,115c9.66,0,17.5,6.72,17.5,15s-7.84,16-17.5,16A16.35,16.35,0,0,1,62,138" fill="none" stroke="#666" stroke-linecap="round" stroke-linejoin="round" stroke-width="8"/><polyline points="62 96 92 96 72.63 115.37" fill="none" stroke="#666" stroke-linecap="round" stroke-linejoin="round" stroke-width="8"/><polyline points="112 104 128 94 128 146" fill="none" stroke="#666" stroke-linecap="round" stroke-linejoin="round" stroke-width="8"/></g></symbol></defs><title>calendar-mid</title><g id="8465ae56-63e7-4818-a0a1-548ac3df3bfc" data-name="ICON"><use id="63b60634-9329-4de9-9d53-2edcc343beb3" data-name="Calendar_ic_mid" width="192" height="192" transform="translate(0 0)" xlink:href="#7160884c-91a4-4290-853a-c6e48c7dc7fe"/></g></svg>