<svg xmlns="http://www.w3.org/2000/svg" xmlns:xlink="http://www.w3.org/1999/xlink" width="192" height="192" viewBox="0 0 192 192"><defs><symbol id="b631bc22-260e-483b-b658-ee77fca9a3e3" data-name="Camera_ic_mid" viewBox="0 0 192 192"><circle id="9a500e79-6688-434e-a5bd-2b271dac9e12" data-name="&lt;Pfad&gt;" cx="96" cy="104" r="38" fill="none" stroke="#e60000" stroke-linecap="round" stroke-miterlimit="10" stroke-width="4"/><path d="M18,74A16,16,0,0,1,34,58H53.74a8,8,0,0,0,6.64-3.53l15.07-23a12,12,0,0,1,10-5.43h21a12,12,0,0,1,10,5.43l15.07,23A8,8,0,0,0,138.28,58H158a16,16,0,0,1,16,16v76a16,16,0,0,1-16,16H34a16,16,0,0,1-16-16Z" fill="none" stroke="#676767" stroke-linecap="round" stroke-linejoin="round" stroke-width="4"/><rect width="192" height="192" fill="none"/></symbol></defs><title>camera-mid</title><g id="befb7ac5-f3ae-4451-b87f-7949dd06b8f5" data-name="ICON"><use id="e01bb9a9-d044-4976-9023-1dadbe453f7c" data-name="Camera_ic_mid" width="192" height="192" transform="translate(0 0)" xlink:href="#b631bc22-260e-483b-b658-ee77fca9a3e3"/></g></svg>