<svg xmlns="http://www.w3.org/2000/svg" xmlns:xlink="http://www.w3.org/1999/xlink" width="192" height="192" viewBox="0 0 192 192"><defs><symbol id="697fa6ae-8323-42f9-b083-d0c41360c957" data-name="Reports_ic_mid" viewBox="0 0 192 192"><rect width="192" height="192" fill="none"/><g id="5415d8bd-3a37-44d1-a312-984fd8748ba7" data-name="Payment_ic"><line x1="60" y1="70" x2="108" y2="70" fill="none" stroke="#e60000" stroke-linecap="round" stroke-linejoin="round" stroke-width="4"/><line x1="60" y1="94" x2="108" y2="94" fill="none" stroke="#666" stroke-linecap="round" stroke-linejoin="round" stroke-width="4"/><line x1="60" y1="118" x2="108" y2="118" fill="none" stroke="#666" stroke-linecap="round" stroke-linejoin="round" stroke-width="4"/><line x1="60" y1="142" x2="108" y2="142" fill="none" stroke="#666" stroke-linecap="round" stroke-linejoin="round" stroke-width="4"/><path d="M34,162V46A12,12,0,0,1,46,34h76a12,12,0,0,1,12,12V162a12,12,0,0,1-12,12H46A12,12,0,0,1,34,162Z" fill="none" stroke="#666" stroke-linecap="round" stroke-linejoin="round" stroke-width="4"/><path d="M58,34V30.35A12.43,12.43,0,0,1,70.5,18h75A12.43,12.43,0,0,1,158,30.35V145.65A12.43,12.43,0,0,1,145.5,158H134" fill="none" stroke="#666" stroke-linejoin="round" stroke-width="4"/></g></symbol></defs><title>case-study-mid</title><g id="4b9e6477-a427-4c92-b453-b612cbbdb0d2" data-name="ICON"><use width="192" height="192" transform="translate(0 0)" xlink:href="#697fa6ae-8323-42f9-b083-d0c41360c957"/></g></svg>