<svg xmlns="http://www.w3.org/2000/svg" xmlns:xlink="http://www.w3.org/1999/xlink" width="192" height="192" viewBox="0 0 192 192"><defs><symbol id="3cb6ac63-dc5a-424f-bfe6-02fd49028159" data-name="Chat_ic_mid" viewBox="0 0 192 192"><path id="75f91a88-c298-4eda-bf4f-a061cc3d3e62" data-name="&lt;Pfad&gt;" d="M142.65,73.59s.28-1.45.36-1.94c1.59-9.61-4.88-18.78-4.88-18.78a49.8,49.8,0,0,0-14.29-14.77,65.64,65.64,0,0,0-20.55-9.28,78.29,78.29,0,0,0-24.72-2.35,79.08,79.08,0,0,0-24.32,5.36A67.4,67.4,0,0,0,34.75,43.57,51.42,51.42,0,0,0,22,60a40.13,40.13,0,0,0-4,19.4,38.71,38.71,0,0,0,2.67,12.32,42.74,42.74,0,0,0,6.36,10.91,51.17,51.17,0,0,0,9.51,9.12c3.63,2.7,11.22,6,15.63,7.92C46.5,133.12,33.12,141,33.12,141a67.25,67.25,0,0,0,16.47-.66,64.93,64.93,0,0,0,11.31-2.95s4.53-1.61,17.49-8.75l1.67-.91" fill="none" stroke="#666" stroke-linecap="round" stroke-linejoin="round" stroke-width="4"/><rect width="192" height="192" fill="none"/><path id="60360907-3bd8-4f51-b364-005d4b8c1a05" data-name="&lt;Pfad&gt;" d="M144.41,74.1l-2.29-.66a61,61,0,0,0-19.31-1.84,61.6,61.6,0,0,0-19,4.21A52.64,52.64,0,0,0,88.56,85,40.32,40.32,0,0,0,78.63,97.9a31.58,31.58,0,0,0-3.12,15.22,31.08,31.08,0,0,0,4.62,14.75A39,39,0,0,0,91.3,139.46a51.14,51.14,0,0,0,16.06,7.28,60.86,60.86,0,0,0,19.31,1.84l.63-.05a54.23,54.23,0,0,0,6.88,4,52.14,52.14,0,0,0,9,3.4,49.93,49.93,0,0,0,11,1.72,52.19,52.19,0,0,0,12.84-1.07s-13.48-7.82-13.86-15.9a49.48,49.48,0,0,0,8.86-6.6,41.42,41.42,0,0,0,6.67-8,34.5,34.5,0,0,0,4.08-9.12,30.79,30.79,0,0,0-3.51-24.61,37.14,37.14,0,0,0-6.8-8.13A63.74,63.74,0,0,0,144.41,74.1" fill="none" stroke="#e60000" stroke-linecap="round" stroke-linejoin="round" stroke-width="4"/></symbol></defs><title>chat-mid</title><g id="40a37978-e3f5-49cf-be36-7a10fd183684" data-name="ICON"><use id="17c63036-36c6-41a8-b34b-fc836be0ebbd" data-name="Chat_ic_mid" width="192" height="192" transform="translate(0 0)" xlink:href="#3cb6ac63-dc5a-424f-bfe6-02fd49028159"/></g></svg>