<svg id="808be610-1a1b-4a97-8836-4714b5354984" data-name="ICON" xmlns="http://www.w3.org/2000/svg" width="192" height="192" viewBox="0 0 192 192"><title>cloud-download-mid</title><g id="698ac86d-7a51-412f-86e2-1f45b84f089a" data-name="Business_ic_mid"><path d="M41.58,59.31C27.68,63.47,18,77.12,18,92.5,18,111,34,126,52.5,126H136a37.49,37.49,0,0,0,37.5-37.44C173.5,67.88,160.78,50,133.82,50a34.89,34.89,0,0,0-6.52.62" transform="translate(0 0)" fill="none" stroke="#666" stroke-linecap="round" stroke-linejoin="round" stroke-width="4"/><path d="M127.25,50.62C120.23,33,102.57,20,83.72,20,61.87,20,44.8,37.53,41.52,59.31" transform="translate(0 0)" fill="none" stroke="#666" stroke-linecap="round" stroke-linejoin="round" stroke-width="4"/><line x1="96" y1="86" x2="96" y2="174" fill="none" stroke="#e60000" stroke-linecap="round" stroke-linejoin="round" stroke-width="4"/><rect width="192" height="192" fill="none"/><polyline points="122 146 96 174 70 146" fill="none" stroke="#e60000" stroke-linecap="round" stroke-linejoin="round" stroke-width="4"/><path d="M127.31,50.62" transform="translate(0 0)" fill="none" stroke="#e60000" stroke-linecap="round" stroke-linejoin="round" stroke-width="4"/></g></svg>