<svg xmlns="http://www.w3.org/2000/svg" xmlns:xlink="http://www.w3.org/1999/xlink" width="192" height="192" viewBox="0 0 192 192"><defs><symbol id="d3f44d56-c3dd-46ee-943d-856c1979c756" data-name="Community_or_Foundation_ic_mid" viewBox="0 0 192 192"><path d="M114.11,152.3a59.73,59.73,0,0,0,28.32-19.43" fill="none" stroke="#666" stroke-linecap="round" stroke-linejoin="round" stroke-width="4"/><path d="M49.56,132.88a59.73,59.73,0,0,0,28.3,19.42" fill="none" stroke="#666" stroke-linecap="round" stroke-linejoin="round" stroke-width="4"/><path d="M37.73,82.76A59.75,59.75,0,0,0,40.38,117" fill="none" stroke="#666" stroke-linecap="round" stroke-linejoin="round" stroke-width="4"/><path d="M86.83,36.54a59.4,59.4,0,0,0-31,14.84" fill="none" stroke="#666" stroke-linecap="round" stroke-linejoin="round" stroke-width="4"/><path d="M136.13,51.37a59.4,59.4,0,0,0-31-14.83" fill="none" stroke="#666" stroke-linecap="round" stroke-linejoin="round" stroke-width="4"/><path d="M151.62,117a59.75,59.75,0,0,0,2.66-34.23" fill="none" stroke="#666" stroke-linecap="round" stroke-linejoin="round" stroke-width="4"/><rect width="192" height="192" fill="none"/><circle cx="96" cy="155.11" r="18.35" fill="none" stroke="#e60000" stroke-miterlimit="10" stroke-width="4"/><circle cx="147.65" cy="65.66" r="18.35" transform="translate(-13.05 82.62) rotate(-30)" fill="none" stroke="#e60000" stroke-miterlimit="10" stroke-width="4"/><circle cx="44.35" cy="65.66" r="18.35" transform="translate(-34.68 71.24) rotate(-60)" fill="none" stroke="#e60000" stroke-miterlimit="10" stroke-width="4"/></symbol></defs><title>community-or-foundation-mid</title><g id="237ab234-c528-40bc-99e0-61377f23e4d1" data-name="ICON"><use id="9cb16c73-2fc8-49ac-a954-39fb723c9687" data-name="Community_or_Foundation_ic_mid" width="192" height="192" transform="translate(0 0)" xlink:href="#d3f44d56-c3dd-46ee-943d-856c1979c756"/></g></svg>