<svg id="31a6d66b-ef2c-40f9-9681-cb690ef216a3" data-name="ICON" xmlns="http://www.w3.org/2000/svg" width="192" height="192" viewBox="0 0 192 192"><title>connected-devices-mid</title><polyline points="134 122.04 93.42 122.04 82 122.04" fill="none" stroke="#666" stroke-linecap="round" stroke-linejoin="round" stroke-width="4"/><rect width="192" height="192" fill="none"/><line x1="150" y1="142" x2="158" y2="142" fill="none" stroke="#e60000" stroke-linecap="round" stroke-linejoin="round" stroke-width="4"/><line x1="46.04" y1="142" x2="54.04" y2="142" fill="none" stroke="#e60000" stroke-linecap="round" stroke-linejoin="round" stroke-width="4"/><rect x="134" y="86" width="40" height="72" rx="6" ry="6" fill="none" stroke="#666" stroke-linecap="round" stroke-linejoin="round" stroke-width="4"/><rect x="18" y="62" width="64.08" height="96" rx="6" ry="6" fill="none" stroke="#666" stroke-linecap="round" stroke-linejoin="round" stroke-width="4"/><line x1="115.83" y1="142" x2="82" y2="142" fill="none" stroke="#666" stroke-linecap="round" stroke-linejoin="round" stroke-width="4"/><line x1="96" y1="124.19" x2="96.02" y2="140" fill="none" stroke="#666" stroke-linecap="round" stroke-linejoin="round" stroke-width="4"/><path d="M166,86V40a14,14,0,0,0-14-14H40A14,14,0,0,0,26,40V62" fill="none" stroke="#666" stroke-linecap="round" stroke-linejoin="round" stroke-width="4"/><circle cx="96" cy="108" r="4" fill="#e60000"/></svg>