<svg id="51edcbf3-ca6d-4fe2-a5f2-9f2ebd8a9055" data-name="connectivity_ic_hi" xmlns="http://www.w3.org/2000/svg" width="192" height="192" viewBox="0 0 192 192"><title>connectivity-02-mid</title><path d="M122,55.56a125.77,125.77,0,0,1,45,7.94" transform="translate(0 0)" fill="none" stroke="#666" stroke-linecap="round" stroke-linejoin="round" stroke-width="4"/><path d="M55.13,81A103.63,103.63,0,0,1,102,57.76" transform="translate(0 0)" fill="none" stroke="#666" stroke-linecap="round" stroke-linejoin="round" stroke-width="4"/><path d="M24,126A110.7,110.7,0,0,1,41.29,95.4" transform="translate(0 0)" fill="none" stroke="#666" stroke-linecap="round" stroke-linejoin="round" stroke-width="4"/><path d="M120.94,60.33c25.4,22.13,36.84,54.89,35.06,85.17" transform="translate(0 0)" fill="none" stroke="#666" stroke-linecap="round" stroke-linejoin="round" stroke-width="4"/><path d="M49,34c22.1.73,40.68,6.22,55.85,14.89" transform="translate(0 0)" fill="none" stroke="#666" stroke-linecap="round" stroke-linejoin="round" stroke-width="4"/><path d="M85.64,145.86A127.64,127.64,0,0,0,94.5,174" transform="translate(0 0)" fill="none" stroke="#666" stroke-linecap="round" stroke-linejoin="round" stroke-width="4"/><path d="M107.19,64.64C95,80.08,84.51,100.48,84.1,126" transform="translate(0 0)" fill="none" stroke="#666" stroke-linecap="round" stroke-linejoin="round" stroke-width="4"/><path d="M143.5,34.5c-4.46,1.58-13.45,7-23.11,15.93" transform="translate(0 0)" fill="none" stroke="#666" stroke-linecap="round" stroke-linejoin="round" stroke-width="4"/><path d="M92,142c13.36,7.68,30.34,13.53,51,15.5" transform="translate(0 0)" fill="none" stroke="#666" stroke-linecap="round" stroke-linejoin="round" stroke-width="4"/><path d="M51,97.53a104,104,0,0,0,24.73,32.82" transform="translate(0 0)" fill="none" stroke="#666" stroke-linecap="round" stroke-linejoin="round" stroke-width="4"/><path d="M37.5,44.5A129.93,129.93,0,0,0,43.63,79" transform="translate(0 0)" fill="none" stroke="#666" stroke-linecap="round" stroke-linejoin="round" stroke-width="4"/><path d="M145.62,35.81A78,78,0,1,1,96,18a77.84,77.84,0,0,1,49.62,17.81" transform="translate(0 0)" fill="none" stroke="#666" stroke-linecap="round" stroke-linejoin="round" stroke-width="4"/><circle cx="48" cy="88" r="10" transform="translate(-48.02 116.76) rotate(-78.06)" fill="none" stroke="#e60000" stroke-linecap="round" stroke-linejoin="round" stroke-width="4"/><circle cx="84" cy="136" r="10" transform="translate(-66.43 190.06) rotate(-78.06)" fill="none" stroke="#e60000" stroke-linecap="round" stroke-linejoin="round" stroke-width="4"/><circle cx="112" cy="55.87" r="10" transform="translate(34.17 153.9) rotate(-78.06)" fill="none" stroke="#e60000" stroke-linecap="round" stroke-linejoin="round" stroke-width="4"/><rect width="192" height="192" fill="none"/></svg>