<svg id="d4b52a43-13f1-4ea9-ac88-07521540cc9b" data-name="ICON" xmlns="http://www.w3.org/2000/svg" width="192" height="192" viewBox="0 0 192 192"><title>connected-car-mid</title><g id="5bc78fb0-229b-48b4-9b60-9072b9b01827" data-name="Connected car"><rect width="192" height="192" fill="none"/><circle cx="94" cy="102" r="6" transform="translate(-44.59 96.34) rotate(-45)" fill="#e60100"/><path d="M82.39,90.63a16.42,16.42,0,0,1,23.22,0" transform="translate(0 0)" fill="none" stroke="#e60000" stroke-linecap="round" stroke-linejoin="round" stroke-width="4"/><path d="M71,79.5a32.84,32.84,0,0,1,46.45,0" transform="translate(0 0)" fill="none" stroke="#e60000" stroke-linecap="round" stroke-linejoin="round" stroke-width="4"/><circle cx="136.53" cy="121.95" r="20" fill="none" stroke="#666" stroke-linecap="round" stroke-linejoin="round" stroke-width="4"/><circle cx="55" cy="121.95" r="20" fill="none" stroke="#666" stroke-linecap="round" stroke-linejoin="round" stroke-width="4"/><line x1="74.5" y1="126" x2="116.94" y2="125.98" fill="none" stroke="#666" stroke-linecap="round" stroke-linejoin="round" stroke-width="4"/><path d="M156,126h9.79c8.71-.08,8.21-8.21,8.21-8.21,0-18.16-14.43-31.49-31.82-36.9h0S126,63.12,119.61,58.29C112.81,53.13,101.13,46,87.79,46H79.58c-17.45,0-30.74,12-36.95,20.53C38.52,72.17,25.2,91.13,25.2,91.13A32.7,32.7,0,0,0,18,111.66v6.13A8.21,8.21,0,0,0,26.21,126H35.5" transform="translate(0 0)" fill="none" stroke="#666" stroke-linecap="round" stroke-linejoin="round" stroke-width="4"/></g></svg>