<svg xmlns="http://www.w3.org/2000/svg" xmlns:xlink="http://www.w3.org/1999/xlink" width="192" height="192" viewBox="0 0 192 192"><defs><symbol id="f2c71831-a162-456b-867e-143db9b756a9" data-name="Customer_care_ic 2" viewBox="0 0 192 192"><rect width="192" height="192" fill="none"/><path d="M40,76A12,12,0,0,1,52,88v24a12,12,0,1,1-24,0V88A12,12,0,0,1,40,76m0-4h0A16,16,0,0,0,24,88v24a16,16,0,0,0,16,16h0a16,16,0,0,0,16-16V88A16,16,0,0,0,40,72Z" fill="#6d6a69"/><path d="M152,76a12,12,0,0,1,12,12v24a12,12,0,1,1-24,0V88a12,12,0,0,1,12-12m0-4h0a16,16,0,0,0-16,16v24a16,16,0,0,0,16,16h0a16,16,0,0,0,16-16V88a16,16,0,0,0-16-16Z" fill="#6d6a69"/><path d="M26,88V78s2-60,70-60,70,60,70,60V88" fill="none" stroke="#6d6a69" stroke-linecap="round" stroke-miterlimit="10" stroke-width="4"/><path d="M161.62,124.76C159.89,138.35,152.35,160,122,160" fill="none" stroke="#6d6a69" stroke-linecap="round" stroke-miterlimit="10" stroke-width="4"/><path d="M161.82,123q-.08.84-.2,1.73" fill="none" stroke="#6d6a69" stroke-linecap="round" stroke-miterlimit="10" stroke-width="4"/><path d="M108,148a12,12,0,0,1,0,24H84a12,12,0,0,1,0-24h24m0-4H84a16,16,0,0,0,0,32h24a16,16,0,0,0,0-32Z" fill="#e60000"/></symbol></defs><title>consultant-mid</title><g id="a49566d4-39c7-4d83-81d4-6a750df12460" data-name="ICON"><use width="192" height="192" transform="translate(0 0)" xlink:href="#f2c71831-a162-456b-867e-143db9b756a9"/></g></svg>