<svg id="ce808065-c61d-4f7d-8d27-b4f47a6a54fb" data-name="ICON" xmlns="http://www.w3.org/2000/svg" width="192" height="192" viewBox="0 0 192 192"><title>contest-mid</title><g id="55fb6da8-0e19-4c19-b504-1e49b766d0d9" data-name="Apps_ic_mid"><path d="M134.88,40S161.05,38.67,160,60c-.89,18-28,28-28,28" transform="translate(0 0)" fill="none" stroke="#e60000" stroke-linecap="round" stroke-linejoin="round" stroke-width="4"/><path d="M57.12,40S30.95,38.67,32,60c.89,18,28,28,28,28" transform="translate(0 0)" fill="none" stroke="#e60000" stroke-linecap="round" stroke-linejoin="round" stroke-width="4"/><rect width="192" height="192" fill="none"/><path d="M96,130H88.09C61.31,130,60.5,92,60.5,92L56,18l40,0,40,0-4.5,74s-.81,38-27.59,38H96" transform="translate(0 0)" fill="none" stroke="#666" stroke-linecap="round" stroke-linejoin="round" stroke-width="4"/><line x1="96" y1="132" x2="96" y2="174" fill="none" stroke="#666" stroke-linecap="round" stroke-linejoin="round" stroke-width="4"/><line x1="66" y1="174" x2="126" y2="174" fill="none" stroke="#666" stroke-linecap="round" stroke-linejoin="round" stroke-width="4"/></g></svg>