<svg xmlns="http://www.w3.org/2000/svg" xmlns:xlink="http://www.w3.org/1999/xlink" width="192" height="192" viewBox="0 0 192 192"><defs><symbol id="c5342aaa-cb29-4035-8f15-a7b5c4ea6c10" data-name="Converged_proposition_ic_mid" viewBox="0 0 192 192"><rect width="192" height="192" fill="none"/><g id="1687cf2d-491e-4649-8d08-147e3461a5df" data-name="&lt;Gruppe&gt;"><line id="6d332267-11fd-48c6-864a-cb5a47dd8d5a" data-name="&lt;Pfad&gt;" x1="81.07" y1="150" x2="122" y2="150" fill="none" stroke="#666" stroke-linecap="round" stroke-linejoin="round" stroke-width="4"/></g><line id="7f5e0443-8527-4a8a-8733-fcdbedad6e8c" data-name="&lt;Pfad&gt;" x1="67.35" y1="134" x2="138" y2="134" fill="none" stroke="#666" stroke-linecap="round" stroke-linejoin="bevel" stroke-width="4"/><path id="0e65305f-f27b-4292-850b-4b4695dbffe4" data-name="&lt;Pfad&gt;" d="M166,86V56a14,14,0,0,0-14-14H40A14,14,0,0,0,26,56V79.08" fill="none" stroke="#666" stroke-linecap="round" stroke-linejoin="round" stroke-width="4"/><line x1="96" y1="150" x2="96" y2="134" fill="none" stroke="#666" stroke-linecap="round" stroke-linejoin="round" stroke-width="4"/><line x1="154" y1="146" x2="166" y2="146" fill="none" stroke="#666" stroke-linecap="round" stroke-linejoin="round" stroke-width="4"/><rect x="138" y="86" width="44" height="72" rx="6" ry="6" fill="none" stroke="#666" stroke-linecap="round" stroke-linejoin="round" stroke-width="4"/><path id="fb3a9a7d-ebca-4b08-8dc8-bf77ca7128b0" data-name="&lt;Pfad&gt;" d="M105.5,101.88a13.47,13.47,0,0,0-19,0" fill="none" stroke="#e60000" stroke-linecap="round" stroke-linejoin="round" stroke-width="4"/><path id="a6f511fa-fb25-41a9-b048-622b18086d55" data-name="&lt;Pfad&gt;" d="M115,89.93l0,0h0a26.94,26.94,0,0,0-38.07,0" fill="none" stroke="#e60000" stroke-linecap="round" stroke-linejoin="round" stroke-width="4"/><path id="e1b7d35b-0d15-49fe-ad86-eefab4cead99" data-name="&lt;Pfad&gt;" d="M124.53,77.89a40.41,40.41,0,0,0-57.06-.05" fill="none" stroke="#e60000" stroke-linecap="round" stroke-linejoin="round" stroke-width="4"/><path id="5be38b80-37a0-4cb3-89ff-21ed30954dae" data-name="&lt;Pfad&gt;" d="M54.84,136.67,62,133c1.83-.57,3.6-.49,4.54.31,1.42,1.21,13.23,12.1,14.22,13.06s1.13,3.23-.81,5.1S68.5,161.61,65.5,161s-15.51-3-35-30S12.93,91.91,13.37,89,24.68,79.61,27.16,78.5s4.64-.17,5.23,1c.67,1.35,7.12,15.74,7.82,17.38.48,1.12-.07,2.77-1.25,4.23s-6,7-6,7,1.81,4.7,9,14.65C45.41,127.63,54.84,136.67,54.84,136.67Z" fill="none" stroke="#666" stroke-linecap="round" stroke-linejoin="round" stroke-width="4"/></symbol></defs><title>converged-proposition-mid</title><g id="06d4137f-7fdd-47c6-8b25-7f8524161a0d" data-name="ICON"><use id="7fc4cdff-b2f8-4365-b120-f3b57593423c" data-name="Converged_proposition_ic_mid" width="192" height="192" transform="translate(0 0)" xlink:href="#c5342aaa-cb29-4035-8f15-a7b5c4ea6c10"/></g></svg>