<svg xmlns="http://www.w3.org/2000/svg" xmlns:xlink="http://www.w3.org/1999/xlink" width="192" height="192" viewBox="0 0 192 192"><defs><symbol id="3584817d-f786-425d-90bb-b8e0e302eda8" data-name="Deal_ic_mid" viewBox="0 0 192 192"><path d="M136.34,110.25l17.18,9.92a9.92,9.92,0,0,1,3.63,13.55h0a9.92,9.92,0,0,1-13.55,3.63l-43-24.8" fill="none" stroke="#666" stroke-linecap="round" stroke-linejoin="round" stroke-width="4"/><path d="M135,132.39a9.92,9.92,0,0,1,3.63,13.55h0a9.92,9.92,0,0,1-13.55,3.63L90.72,129.73" fill="none" stroke="#666" stroke-linecap="round" stroke-linejoin="round" stroke-width="4"/><path d="M116.49,144.61a9.92,9.92,0,0,1,3.63,13.55h0a9.92,9.92,0,0,1-13.55,3.63l-1.15-.66L39,122.77l-1.15-.66a39.68,39.68,0,0,1-14.52-54.2l9.92-17.18A39.68,39.68,0,0,1,87.45,36.2l3.46,2" fill="none" stroke="#666" stroke-linecap="round" stroke-linejoin="round" stroke-width="4"/><path d="M163.47,103a9.92,9.92,0,0,1,3.63,13.55h0a9.92,9.92,0,0,1-13.55,3.63l-43-24.8" fill="none" stroke="#666" stroke-linecap="round" stroke-linejoin="round" stroke-width="4"/><path d="M164.68,100.84a39.68,39.68,0,0,0-14.52-54.2L133,36.71a39.68,39.68,0,0,0-54.2,14.52L52.08,95.66l7.1,2.66a12.16,12.16,0,0,0,12.53-2.46L88.86,77.26c11.78,5,19.85,1.76,26.49-2L163.47,103Z" fill="none" stroke="#e60000" stroke-linecap="round" stroke-linejoin="round" stroke-width="4"/><rect width="192" height="192" fill="none"/></symbol></defs><title>deals-mid</title><g id="8cc1cd16-7f37-490b-bb55-fe640ab5f8aa" data-name="ICON"><use id="94f86ebb-7649-4531-bdd2-2f06b1343ccc" data-name="Deal_ic_mid" width="192" height="192" transform="translate(0 0)" xlink:href="#3584817d-f786-425d-90bb-b8e0e302eda8"/></g></svg>