<svg xmlns="http://www.w3.org/2000/svg" xmlns:xlink="http://www.w3.org/1999/xlink" width="192" height="192" viewBox="0 0 192 192"><defs><symbol id="0dcb655c-792b-4862-894d-56c9148f3aea" data-name="Delivery_ic+_mid 2" viewBox="0 0 192 192"><rect width="192" height="192" fill="none"/><rect width="192" height="192" fill="none"/><path d="M149.86,126H160a14,14,0,0,0,14-14V88L164,58H114" fill="none" stroke="#666" stroke-linejoin="round" stroke-width="4"/><line x1="61.86" y1="126" x2="122" y2="126" fill="none" stroke="#666" stroke-linejoin="round" stroke-width="4"/><path d="M114,126V56a14,14,0,0,0-14-14H32A14,14,0,0,0,18,56v56a14,14,0,0,0,14,14h2.14" fill="none" stroke="#666" stroke-linejoin="round" stroke-width="4"/><g id="fb35aa33-5dcb-4e39-9a3a-106b85879f45" data-name="Delivery_ic+_mid"><circle cx="48" cy="128" r="14" fill="none" stroke="#e60000" stroke-linejoin="round" stroke-width="4"/><circle cx="136" cy="128" r="14" fill="none" stroke="#e60000" stroke-linejoin="round" stroke-width="4"/></g></symbol></defs><title>delivery-mid</title><g id="a66fddb8-5117-45d4-a3e6-62fe12966437" data-name="ICON"><use id="a7fd5556-07f3-4a35-828f-1bb7848e52a1" data-name="Delivery_ic+_mid 2" width="192" height="192" transform="translate(0 0)" xlink:href="#0dcb655c-792b-4862-894d-56c9148f3aea"/></g></svg>