<svg xmlns="http://www.w3.org/2000/svg" xmlns:xlink="http://www.w3.org/1999/xlink" width="192" height="192" viewBox="0 0 192 192"><defs><symbol id="155946a8-87bc-4c4c-bb77-e17aad2dbcf8" data-name="File_rtf_ic_mid" viewBox="0 0 192 192"><line x1="97" y1="118" x2="97" y2="94" fill="none" stroke="#e60000" stroke-linecap="round" stroke-linejoin="round" stroke-width="4"/><path d="M68,118V94h7s7-.5,7,7-7,7-7,7H68" fill="none" stroke="#e60000" stroke-linecap="round" stroke-linejoin="round" stroke-width="4"/><rect width="192" height="192" fill="none"/><path d="M114,18H56c-6.63,0-14,7.37-14,14V160a14,14,0,0,0,14,14h80a14,14,0,0,0,14-14V54Z" fill="none" stroke="#666" stroke-linejoin="round" stroke-width="4"/><path d="M114,18V50a4,4,0,0,0,4,4h32" fill="none" stroke="#666" stroke-linejoin="round" stroke-width="4"/><line x1="89" y1="94" x2="105" y2="94" fill="none" stroke="#e60000" stroke-linecap="round" stroke-linejoin="round" stroke-width="4"/><g id="c1e445b7-c7d4-4f3e-9019-5a1fa1136aac" data-name="File_pdf_ic_mid"><polyline points="114 118 114 94 126 94" fill="none" stroke="#e60000" stroke-linecap="round" stroke-linejoin="round" stroke-width="4"/><line x1="114" y1="106" x2="124" y2="106" fill="none" stroke="#e60000" stroke-linecap="round" stroke-linejoin="round" stroke-width="4"/></g><line x1="75.5" y1="108" x2="81" y2="118" fill="none" stroke="#e60000" stroke-linecap="round" stroke-linejoin="round" stroke-width="4"/></symbol></defs><title>document-rtf-mid</title><g id="8c44e748-4fc3-4a0d-80c8-0af0079867a8" data-name="ICON"><use id="d3f11d1a-ef0f-476d-aecf-25a63b1a4d11" data-name="File_rtf_ic_mid" width="192" height="192" transform="translate(0 0)" xlink:href="#155946a8-87bc-4c4c-bb77-e17aad2dbcf8"/></g></svg>