<svg xmlns="http://www.w3.org/2000/svg" xmlns:xlink="http://www.w3.org/1999/xlink" width="192" height="192" viewBox="0 0 192 192"><defs><symbol id="c33d1b74-461c-4cb5-862d-184871b83b8b" data-name="File_jpg_ic_mid" viewBox="0 0 192 192"><g id="247dbe61-a1c4-4a20-9714-d20a2bb427f9" data-name="File_ppt_ic_mid"><path d="M86,118V94h7s7-.5,7,7-7,7-7,7H86" fill="none" stroke="#e60000" stroke-linecap="round" stroke-linejoin="round" stroke-width="4"/><rect width="192" height="192" fill="none"/><path d="M114,18H56c-6.63,0-14,7.37-14,14V160a14,14,0,0,0,14,14h80a14,14,0,0,0,14-14V54Z" fill="none" stroke="#666" stroke-linejoin="round" stroke-width="4"/><path d="M114,18V50a4,4,0,0,0,4,4h32" fill="none" stroke="#666" stroke-linejoin="round" stroke-width="4"/><path d="M75.5,94v20.08a4,4,0,0,1-1.37,3c-1.51,1.29-4.31,2.57-8.63.4" fill="none" stroke="#e60000" stroke-linecap="round" stroke-linejoin="round" stroke-width="4"/><path d="M117.5,108.5h5v9s-13.64,4.66-15.61-7.35c-2-12.18,5.79-14.7,7.31-15.06.9-.21,6.09-.94,7.8,2.91" fill="none" stroke="#e60000" stroke-linecap="round" stroke-linejoin="round" stroke-width="4"/></g></symbol></defs><title>document-jpg-mid</title><g id="8b88ad6d-e798-4270-95bd-3faabb2a046c" data-name="ICON"><use id="a1309064-9bf5-4c5d-8920-cde508ce2e0a" data-name="File_jpg_ic_mid" width="192" height="192" transform="translate(0 0)" xlink:href="#c33d1b74-461c-4cb5-862d-184871b83b8b"/></g></svg>