<svg xmlns="http://www.w3.org/2000/svg" xmlns:xlink="http://www.w3.org/1999/xlink" width="192" height="192" viewBox="0 0 192 192"><defs><symbol id="452c8d28-5d9a-4362-a06b-66ea182bbca8" data-name="File_ppt_ic_mid" viewBox="0 0 192 192"><line x1="120" y1="118" x2="120" y2="94" fill="none" stroke="#e60000" stroke-linecap="round" stroke-linejoin="round" stroke-width="4"/><path d="M92,118V94h7s7-.5,7,7-7,7-7,7H92" fill="none" stroke="#e60000" stroke-linecap="round" stroke-linejoin="round" stroke-width="4"/><path d="M68,118V94h7s7-.5,7,7-7,7-7,7H68" fill="none" stroke="#e60000" stroke-linecap="round" stroke-linejoin="round" stroke-width="4"/><rect width="192" height="192" fill="none"/><path d="M114,18H56c-6.63,0-14,7.37-14,14V160a14,14,0,0,0,14,14h80a14,14,0,0,0,14-14V54Z" fill="none" stroke="#666" stroke-linejoin="round" stroke-width="4"/><path d="M114,18V50a4,4,0,0,0,4,4h32" fill="none" stroke="#666" stroke-linejoin="round" stroke-width="4"/><line x1="112" y1="94" x2="128" y2="94" fill="none" stroke="#e60000" stroke-linecap="round" stroke-linejoin="round" stroke-width="4"/></symbol></defs><title>document-ppt-mid</title><g id="93a7576d-6560-486c-a884-1e162894cd2e" data-name="ICON"><use id="8df218b1-a873-403f-b210-bababaf8decd" data-name="File_ppt_ic_mid" width="192" height="192" transform="translate(0 0)" xlink:href="#452c8d28-5d9a-4362-a06b-66ea182bbca8"/></g></svg>