<svg xmlns="http://www.w3.org/2000/svg" xmlns:xlink="http://www.w3.org/1999/xlink" width="192" height="192" viewBox="0 0 192 192"><defs><symbol id="0c13ed60-4594-4160-8fe5-17396fa07ef7" data-name="File_xls_ic_mid" viewBox="0 0 192 192"><polyline points="91 93.94 91 117.94 103 117.94" fill="none" stroke="#e60000" stroke-linecap="round" stroke-linejoin="round" stroke-width="4"/><rect width="192" height="192" fill="none"/><path d="M114,18H56c-6.63,0-14,7.37-14,14V160a14,14,0,0,0,14,14h80a14,14,0,0,0,14-14V54Z" fill="none" stroke="#666" stroke-linejoin="round" stroke-width="4"/><path d="M114,18V50a4,4,0,0,0,4,4h32" fill="none" stroke="#666" stroke-linejoin="round" stroke-width="4"/><line x1="66.47" y1="93.94" x2="81.47" y2="117.94" fill="none" stroke="#e60000" stroke-linecap="round" stroke-linejoin="round" stroke-width="4"/><line x1="65.97" y1="117.94" x2="80.97" y2="93.94" fill="none" stroke="#e60000" stroke-linecap="round" stroke-linejoin="round" stroke-width="4"/><path d="M109.85,116.54s2.87,2.35,8.1,2c2.65-.16,6.32-1.84,5.7-6.64s-9.88-7.37-9.88-7.37-3.89-1.07-3.92-4.86a5.94,5.94,0,0,1,5.94-6.31,10.2,10.2,0,0,1,7.37,2.14" fill="none" stroke="#e60000" stroke-linecap="round" stroke-linejoin="round" stroke-width="4"/></symbol></defs><title>document-xls-mid</title><g id="099a9f71-b0f9-4413-8f6c-72d8178dca7f" data-name="ICON"><use id="c6dc8ddf-b989-4a71-9417-6b87036614dc" data-name="File_xls_ic_mid" width="192" height="192" transform="translate(0 0)" xlink:href="#0c13ed60-4594-4160-8fe5-17396fa07ef7"/></g></svg>