<svg xmlns="http://www.w3.org/2000/svg" xmlns:xlink="http://www.w3.org/1999/xlink" width="192" height="192" viewBox="0 0 192 192"><defs><symbol id="52988c67-a08d-4e4d-9504-4e00c09d85de" data-name="File_doc_ic_mid" viewBox="0 0 192 192"><rect width="192" height="192" fill="none"/><path d="M114,18H56c-6.63,0-14,7.37-14,14V160a14,14,0,0,0,14,14h80a14,14,0,0,0,14-14V54Z" fill="none" stroke="#666" stroke-linejoin="round" stroke-width="4"/><path d="M114,18V50a4,4,0,0,0,4,4h32" fill="none" stroke="#666" stroke-linejoin="round" stroke-width="4"/><path d="M62.55,94.75v22.5h5s10.5,1.5,10.5-11.5c0-12-10.5-11-10.5-11Z" fill="none" stroke="#e60000" stroke-linecap="round" stroke-linejoin="round" stroke-width="4"/><ellipse cx="95.8" cy="106" rx="9.5" ry="12" fill="none" stroke="#e60000" stroke-linecap="round" stroke-linejoin="round" stroke-width="4"/><path d="M128.6,115.25a8.37,8.37,0,0,1-6.05,2.75c-5.25,0-9.5-5.37-9.5-12s4.25-12,9.5-12a8.69,8.69,0,0,1,6.9,3.75" fill="none" stroke="#e60000" stroke-linecap="round" stroke-linejoin="round" stroke-width="4"/></symbol></defs><title>document-doc-mid</title><g id="790b2209-9d51-48f6-bc0a-8118290014e2" data-name="ICON"><use id="be1c25a4-b126-46f4-a4d5-ab2968d2e094" data-name="File_doc_ic_mid" width="192" height="192" transform="translate(0 0)" xlink:href="#52988c67-a08d-4e4d-9504-4e00c09d85de"/></g></svg>