<svg xmlns="http://www.w3.org/2000/svg" xmlns:xlink="http://www.w3.org/1999/xlink" width="192" height="192" viewBox="0 0 192 192"><defs><symbol id="adf680c4-7831-4ed9-80d0-1711933f5dcb" data-name="File_pdf_ic_mid" viewBox="0 0 192 192"><g id="86a233a9-cfaf-403e-b97e-c22636995deb" data-name="File_pdf_ic 2"><rect width="192" height="192" fill="none"/></g><g id="55276f52-12c1-436f-831f-7622b846d38b" data-name="Document_ic"><path d="M114,18H56c-6.63,0-14,7.37-14,14V160a14,14,0,0,0,14,14h80a14,14,0,0,0,14-14V54Z" fill="none" stroke="#666" stroke-linejoin="round" stroke-width="4"/><path d="M114,18V50a4,4,0,0,0,4,4h32" fill="none" stroke="#666" stroke-linejoin="round" stroke-width="4"/></g><polyline points="114 118 114 94 126 94" fill="none" stroke="#e60000" stroke-linecap="round" stroke-linejoin="round" stroke-width="4"/><path d="M89.5,94v24s14.5,2,14.5-12S89.5,94,89.5,94Z" fill="none" stroke="#e60000" stroke-linecap="round" stroke-linejoin="round" stroke-width="4"/><path d="M66,118V94h7s7-.5,7,7-7,7-7,7H66" fill="none" stroke="#e60000" stroke-linecap="round" stroke-linejoin="round" stroke-width="4"/><line x1="114" y1="106" x2="124" y2="106" fill="none" stroke="#e60000" stroke-linecap="round" stroke-linejoin="round" stroke-width="4"/></symbol></defs><title>document-pdf-mid</title><g id="511309e6-4437-4b7a-8a6e-707a7801821e" data-name="ICON"><use id="47c8b110-b2e9-41ba-b7dd-d25f817ed78a" data-name="File_pdf_ic_mid" width="192" height="192" transform="translate(0 0)" xlink:href="#adf680c4-7831-4ed9-80d0-1711933f5dcb"/></g></svg>