<svg xmlns="http://www.w3.org/2000/svg" xmlns:xlink="http://www.w3.org/1999/xlink" width="192" height="192" viewBox="0 0 192 192"><defs><symbol id="d4e4ba6b-669b-43d5-859a-8ae8dddcb8c8" data-name="File_svg_ic_mid" viewBox="0 0 192 192"><g id="0fc94ace-2aa0-4814-bac0-baadf6825844" data-name="File_xls_ic_mid"><path d="M65,116.54s2.87,2.35,8.1,2c2.65-.16,6.32-1.84,5.7-6.64S69,104.58,69,104.58s-3.89-1.07-3.92-4.86A5.94,5.94,0,0,1,71,93.4a10.2,10.2,0,0,1,7.37,2.14" fill="none" stroke="#e60000" stroke-linecap="round" stroke-linejoin="round" stroke-width="4"/></g><g id="22334373-c914-423c-bd7b-2fb55588dff1" data-name="File_ppt_ic_mid"><rect width="192" height="192" fill="none"/><path d="M114,18H56c-6.63,0-14,7.37-14,14V160a14,14,0,0,0,14,14h80a14,14,0,0,0,14-14V54Z" fill="none" stroke="#666" stroke-linejoin="round" stroke-width="4"/><path d="M122,108.44h5v9s-13.64,4.66-15.61-7.35c-2-12.18,5.79-14.7,7.31-15.06.9-.21,6.09-.94,7.8,2.91" fill="none" stroke="#e60000" stroke-linecap="round" stroke-linejoin="round" stroke-width="4"/><polyline points="86.28 94.94 95.28 117.94 103.78 94.94" fill="none" stroke="#e60000" stroke-linecap="round" stroke-linejoin="round" stroke-width="4"/><path d="M114,18V50a4,4,0,0,0,4,4h32" fill="none" stroke="#666" stroke-linejoin="round" stroke-width="4"/></g></symbol></defs><title>document-svg-mid</title><g id="69fec6c1-613e-4af1-bd50-04f2dddda4e3" data-name="ICON"><use id="9fa6b5b4-9800-49f3-b403-8de1e7a2180b" data-name="File_svg_ic_mid" width="192" height="192" transform="translate(0 0)" xlink:href="#d4e4ba6b-669b-43d5-859a-8ae8dddcb8c8"/></g></svg>