<svg xmlns="http://www.w3.org/2000/svg" xmlns:xlink="http://www.w3.org/1999/xlink" width="192" height="192" viewBox="0 0 192 192"><defs><symbol id="0ca54f0d-9292-462c-952c-5b91feb2b2a7" data-name="File_zip_ic_mid" viewBox="0 0 192 192"><line x1="95.25" y1="118" x2="95.25" y2="94" fill="none" stroke="#e60000" stroke-linecap="round" stroke-linejoin="round" stroke-width="4"/><path d="M105.75,118V94h7s7-.5,7,7-7,7-7,7h-7" fill="none" stroke="#e60000" stroke-linecap="round" stroke-linejoin="round" stroke-width="4"/><rect width="192" height="192" fill="none"/><path d="M114,18H56c-6.63,0-14,7.37-14,14V160a14,14,0,0,0,14,14h80a14,14,0,0,0,14-14V54Z" fill="none" stroke="#666" stroke-linejoin="round" stroke-width="4"/><path d="M114,18V50a4,4,0,0,0,4,4h32" fill="none" stroke="#666" stroke-linejoin="round" stroke-width="4"/><polyline points="70.25 94 86.25 94 70.25 118 86.25 118" fill="none" stroke="#e60000" stroke-linecap="round" stroke-linejoin="round" stroke-width="4"/></symbol></defs><title>document-zip-mid</title><g id="08196dc5-31f6-4c42-8dcd-6f3dd360df30" data-name="ICON"><use id="e6a5d8dd-20db-4ddc-bd85-cc88bb2e6797" data-name="File_zip_ic_mid" width="192" height="192" transform="translate(0 0)" xlink:href="#0ca54f0d-9292-462c-952c-5b91feb2b2a7"/></g></svg>