<svg xmlns="http://www.w3.org/2000/svg" xmlns:xlink="http://www.w3.org/1999/xlink" width="192" height="192" viewBox="0 0 192 192"><defs><symbol id="ddd0994b-1c45-4d5f-a948-36be20c7f0de" data-name="File_png_ic_mid" viewBox="0 0 192 192"><g id="0733810e-2f04-4538-b561-fbeea332a70e" data-name="File_ppt_ic_mid"><path d="M63.53,117.81v-24h7s7-.5,7,7-7,7-7,7h-7" fill="none" stroke="#e60000" stroke-linecap="round" stroke-linejoin="round" stroke-width="4"/><rect width="192" height="192" fill="none"/><path d="M114,18H56c-6.63,0-14,7.37-14,14V160a14,14,0,0,0,14,14h80a14,14,0,0,0,14-14V54Z" fill="none" stroke="#666" stroke-linejoin="round" stroke-width="4"/><path d="M114,18V50a4,4,0,0,0,4,4h32" fill="none" stroke="#666" stroke-linejoin="round" stroke-width="4"/><path d="M121.47,108.31h5v9S112.83,122,110.86,110c-2-12.18,5.79-14.7,7.31-15.06.9-.21,6.09-.94,7.8,2.91" fill="none" stroke="#e60000" stroke-linecap="round" stroke-linejoin="round" stroke-width="4"/><polyline points="86 117.81 86 93.81 102 117.81 102 93.81" fill="none" stroke="#e60000" stroke-linecap="round" stroke-linejoin="round" stroke-width="4"/></g></symbol></defs><title>document-png-mid</title><g id="4a304c47-6fe9-4021-9fed-357ba423de01" data-name="ICON"><use id="9bc05a2c-48c2-42ea-b1af-2ee90f4c50a9" data-name="File_png_ic_mid" width="192" height="192" transform="translate(0 0)" xlink:href="#ddd0994b-1c45-4d5f-a948-36be20c7f0de"/></g></svg>