<svg id="26fe9fa4-a834-456b-8112-df4bade8b1dd" data-name="ICON" xmlns="http://www.w3.org/2000/svg" width="192" height="192" viewBox="0 0 192 192"><title>engineer-mid</title><g id="961ba9e6-5d1c-4d94-905a-01ca8473366f" data-name="Apps_ic_mid"><rect width="192" height="192" fill="none"/><path d="M133.12,115.45,162,144.31a12.13,12.13,0,0,1,0,17.14h0a12.11,12.11,0,0,1-17.13,0L116,132.58" transform="translate(0 0)" fill="none" stroke="#666" stroke-linecap="round" stroke-miterlimit="10" stroke-width="4"/><path d="M139.05,155.65l-22.89-22.89a12.13,12.13,0,0,1,0-17.14h0a12.13,12.13,0,0,1,17.14,0l22.89,22.89" transform="translate(0 0)" fill="none" stroke="#666" stroke-linecap="round" stroke-miterlimit="10" stroke-width="4"/><path d="M146.5,28.57a32.78,32.78,0,0,0-42.91,43v0L30.64,144.53a12.28,12.28,0,0,0,0,17.37h0a12.28,12.28,0,0,0,17.37,0L121,89l0,0A32.77,32.77,0,0,0,163.92,46" transform="translate(0 0)" fill="none" stroke="#666" stroke-linecap="round" stroke-miterlimit="10" stroke-width="4"/><line x1="87.51" y1="87.51" x2="30.17" y2="30.17" fill="none" stroke="#666" stroke-linecap="round" stroke-miterlimit="10" stroke-width="4"/><line x1="115.16" y1="115.09" x2="105.09" y2="105.03" fill="none" stroke="#666" stroke-linecap="round" stroke-miterlimit="10" stroke-width="4"/><path d="M146.65,28.4,130.71,45a4.1,4.1,0,0,0-1.14,2.84V58.88A4.09,4.09,0,0,0,133.66,63h11.5a4.09,4.09,0,0,0,2.9-1.2l15.81-15.85" transform="translate(0 0)" fill="none" stroke="#e60000" stroke-linecap="round" stroke-miterlimit="10" stroke-width="4"/></g></svg>