<svg xmlns="http://www.w3.org/2000/svg" xmlns:xlink="http://www.w3.org/1999/xlink" width="192" height="192" viewBox="0 0 192 192"><defs><symbol id="aec8450c-c69e-4934-b5cc-3ffd0395d7c2" data-name="Entertainment_ic_mid" viewBox="0 0 192 192"><path d="M67.89,111.06l11.73-53.9c.87-2.88,2.94-4.6,4.45-4.6a1.92,1.92,0,0,1,.72.14,300.77,300.77,0,0,0,86.44,20.4,2.38,2.38,0,0,1,1.72,1.1,7.22,7.22,0,0,1,.81,5.78L162.84,126.3c-4.32,15.55-20,31.11-45.3,45A21.89,21.89,0,0,1,89,164.58c-14.16-20.45-21.35-38.74-21.14-53.52" fill="none" stroke="#666" stroke-linecap="round" stroke-linejoin="round" stroke-width="4"/><path d="M67.89,111a16.65,16.65,0,0,1-2.48-.94A119.26,119.26,0,0,1,47.34,99.73C37.28,92.58,30.86,84.85,28.47,76.88L18.18,42.62c-.52-2.24.19-4.17,1.19-4.74a1.46,1.46,0,0,1,.53-.18,229.83,229.83,0,0,0,65-19.55,1.82,1.82,0,0,1,1.56.07,5.51,5.51,0,0,1,2.74,3.51l11.41,36.45" fill="none" stroke="#666" stroke-linecap="round" stroke-linejoin="round" stroke-width="4"/><path d="M94,134s2.66,8.65,16,12,20-4,20-4" fill="none" stroke="#e60000" stroke-linecap="round" stroke-linejoin="round" stroke-width="4"/><path d="M76,73.5C62,78,60,88,60,88" fill="none" stroke="#666" stroke-linecap="round" stroke-linejoin="round" stroke-width="4"/><line id="32ad000c-eae6-47d4-913c-19728fe5ac22" data-name="&lt;Pfad&gt;" x1="106" y1="94" x2="94" y2="94" fill="none" stroke="#666" stroke-linecap="round" stroke-miterlimit="10" stroke-width="4"/><line id="6fc6a357-d3a2-44ce-a5b5-70921abb7030" data-name="&lt;Pfad&gt;" x1="74" y1="46" x2="66" y2="46" fill="none" stroke="#666" stroke-linecap="round" stroke-miterlimit="10" stroke-width="4"/><line id="f2fe8235-4e49-4523-baff-7bb656e2d9ca" data-name="&lt;Pfad&gt;" x1="50" y1="52" x2="42" y2="58" fill="none" stroke="#666" stroke-linecap="round" stroke-miterlimit="10" stroke-width="4"/><line id="4473237e-f829-48b0-b16c-c0126d915748" data-name="&lt;Pfad&gt;" x1="142" y1="110" x2="134" y2="102" fill="none" stroke="#666" stroke-linecap="round" stroke-miterlimit="10" stroke-width="4"/><rect width="192" height="192" fill="none"/></symbol></defs><title>entertainment-mid</title><g id="b9a3fbad-75ba-45f4-9d75-819b35c6ee00" data-name="ICON"><use id="6a0e7ef6-24c7-454c-9412-5e8c4c3b7949" data-name="Entertainment_ic_mid" width="192" height="192" transform="translate(0 0)" xlink:href="#aec8450c-c69e-4934-b5cc-3ffd0395d7c2"/></g></svg>