<svg xmlns="http://www.w3.org/2000/svg" xmlns:xlink="http://www.w3.org/1999/xlink" width="192" height="192" viewBox="0 0 192 192"><defs><symbol id="a6650e28-944e-4478-919c-bf11745f9b40" data-name="Enterprise_ic_mid" viewBox="0 0 192 192"><g id="837654c7-a97b-44af-881f-96d1bad03e6d" data-name="icons"><line x1="54" y1="174" x2="54" y2="138" fill="none" stroke="#e60000" stroke-linecap="round" stroke-linejoin="round" stroke-width="4"/><line x1="18" y1="174" x2="174" y2="174" fill="none" stroke="#666" stroke-linecap="round" stroke-linejoin="round" stroke-width="4"/><rect width="192" height="192" fill="none"/><path d="M54,66V32A14,14,0,0,1,68,18h56a14,14,0,0,1,14,14V98" fill="none" stroke="#666" stroke-miterlimit="10" stroke-width="4"/><path d="M26,174V80A14,14,0,0,1,40,66H68A14,14,0,0,1,82,80v94" fill="none" stroke="#666" stroke-linejoin="round" stroke-width="4"/><path d="M110,174V112a14,14,0,0,1,14-14h28a14,14,0,0,1,14,14v62" fill="none" stroke="#666" stroke-linejoin="round" stroke-width="4"/></g></symbol></defs><title>enterprise-mid</title><g id="285b8d21-610f-4ef3-9d07-99e896d589c7" data-name="ICON"><use id="a7ca5fa9-993b-48dd-8467-db2073f6de52" data-name="Enterprise_ic_mid" width="192" height="192" transform="translate(0 0)" xlink:href="#a6650e28-944e-4478-919c-bf11745f9b40"/></g></svg>