<svg xmlns="http://www.w3.org/2000/svg" xmlns:xlink="http://www.w3.org/1999/xlink" width="192" height="192" viewBox="0 0 192 192"><defs><symbol id="745f46d8-c222-4e51-af27-adc139be9073" data-name="Environment_ic_mid" viewBox="0 0 192 192"><path d="M162,31.27A85.18,85.18,0,0,1,164.57,54c-.93,47.82-41.17,85.84-89.89,84.93a89.94,89.94,0,0,1-22-3.14A85.13,85.13,0,0,1,50,113.06C51,65.25,91.22,27.22,139.94,28.13A89.94,89.94,0,0,1,162,31.27Z" fill="none" stroke="#666" stroke-linecap="round" stroke-linejoin="round" stroke-width="4"/><path d="M32.8,163.11a373,373,0,0,1,42.55-54.06,377,377,0,0,1,52.49-45.94" fill="none" stroke="#e60000" stroke-linecap="round" stroke-linejoin="round" stroke-width="4"/><rect width="192" height="192" fill="none"/></symbol></defs><title>environment-mid</title><g id="a05f2039-e0b6-4e4d-ae60-55e4d18202e3" data-name="ICON"><use id="4c1dca79-5f14-42ea-bffc-6051790eab50" data-name="Environment_ic_mid" width="192" height="192" transform="translate(0 0)" xlink:href="#745f46d8-c222-4e51-af27-adc139be9073"/></g></svg>