<svg id="6b1b5b68-4981-46b9-ba02-2f6b7f776c9c" data-name="ICON" xmlns="http://www.w3.org/2000/svg" width="192" height="192" viewBox="0 0 192 192"><title>family_mid</title><g id="7b0209fd-fcd2-44f2-833a-aae1ba0d02ae" data-name="Business_ic_mid"><rect width="192" height="192" fill="none"/><circle cx="68.58" cy="58.06" r="32.02" fill="none" stroke="#666" stroke-linecap="round" stroke-linejoin="round" stroke-width="4"/><circle cx="137.2" cy="67.21" r="22.87" fill="none" stroke="#666" stroke-linecap="round" stroke-linejoin="round" stroke-width="4"/><path d="M62.82,89.5" transform="translate(0 0)" fill="none" stroke="#666" stroke-linecap="round" stroke-linejoin="round" stroke-width="4"/><path d="M18.26,145c5.59-34,25.55-54.82,50.32-54.82a42,42,0,0,1,21.81,6l.35.22" transform="translate(0 0)" fill="none" stroke="#666" stroke-linecap="round" stroke-miterlimit="10" stroke-width="4"/><path d="M119.23,95.58a31.74,31.74,0,0,1,18-5.5c18,0,32.52,14.43,36.59,38" transform="translate(0 0)" fill="none" stroke="#666" stroke-linecap="round" stroke-miterlimit="10" stroke-width="4"/><circle id="937d17bf-fc5a-4cd1-b6a7-896d8da78c3d" data-name="&lt;Path&gt;" cx="105.18" cy="109.45" r="19.45" fill="none" stroke="#e60000" stroke-linecap="round" stroke-linejoin="round" stroke-width="4"/><path id="e35a88e6-bb1c-4c28-a659-1c9409565bc3" data-name="&lt;Path&gt;" d="M136.8,163.27c-3.93-22.74-16.94-34.45-31.43-34.45s-27.88,11.71-31.82,34.45" transform="translate(0 0)" fill="none" stroke="#e60000" stroke-linecap="round" stroke-linejoin="round" stroke-width="4"/><path d="M119,95.69" transform="translate(0 0)" fill="none" stroke="#666" stroke-linecap="round" stroke-miterlimit="10" stroke-width="4"/></g></svg>