<svg xmlns="http://www.w3.org/2000/svg" xmlns:xlink="http://www.w3.org/1999/xlink" width="192" height="192" viewBox="0 0 192 192"><defs><symbol id="007eadfb-bf1a-429a-a899-7095b34cf16d" data-name="Bill_or_Report_ic_mid" viewBox="0 0 192 192"><line id="d1e9c6b2-6061-46d6-943e-24f1bd00cd7f" data-name="&lt;Pfad&gt;" x1="126" y1="134" x2="90" y2="134" fill="none" stroke="#666" stroke-linecap="round" stroke-miterlimit="10" stroke-width="4"/><line id="1f5ce077-80ff-4512-b2fc-202708210991" data-name="&lt;Pfad&gt;" x1="74" y1="134" x2="66" y2="134" fill="none" stroke="#666" stroke-linecap="round" stroke-miterlimit="10" stroke-width="4"/><line id="b700732f-3d7a-4193-af97-5e048d153d1e" data-name="&lt;Pfad&gt;" x1="126" y1="86" x2="90" y2="86" fill="none" stroke="#e60000" stroke-linecap="round" stroke-miterlimit="10" stroke-width="4"/><line id="23f0b119-0dfd-4098-b1a8-445bc5ad4cc7" data-name="&lt;Pfad&gt;" x1="74" y1="86" x2="66" y2="86" fill="none" stroke="#e60000" stroke-linecap="round" stroke-miterlimit="10" stroke-width="4"/><line id="68a1e983-a307-46dd-99a5-4aed87d78545" data-name="&lt;Pfad&gt;" x1="126" y1="110" x2="90" y2="110" fill="none" stroke="#6d6968" stroke-linecap="round" stroke-miterlimit="10" stroke-width="4"/><line id="29131cbc-bfbd-439b-9c60-3e2718beae05" data-name="&lt;Pfad&gt;" x1="74" y1="110" x2="66" y2="110" fill="none" stroke="#6d6968" stroke-linecap="round" stroke-miterlimit="10" stroke-width="4"/><g id="e4ac37d7-27d0-4001-87d0-ba282ee3eaf8" data-name="File_pdf_ic 2"><rect width="192" height="192" fill="none"/></g><g id="f8a0e8ea-e9a7-4985-a074-693795c63848" data-name="Document_ic"><path d="M114,18H56c-6.63,0-14,7.37-14,14V160a14,14,0,0,0,14,14h80a14,14,0,0,0,14-14V54Z" fill="none" stroke="#666" stroke-linejoin="round" stroke-width="4"/><path d="M114,18V50a4,4,0,0,0,4,4h32" fill="none" stroke="#666" stroke-linejoin="round" stroke-width="4"/></g></symbol></defs><title>generic-tariff-plan-mid</title><g id="34bd7cb8-40b6-4278-bae1-958c35ead4aa" data-name="ICON"><use width="192" height="192" transform="translate(0 0)" xlink:href="#007eadfb-bf1a-429a-a899-7095b34cf16d"/></g></svg>