<svg xmlns="http://www.w3.org/2000/svg" xmlns:xlink="http://www.w3.org/1999/xlink" width="192" height="192" viewBox="0 0 192 192"><defs><symbol id="e089978e-ef4f-410b-b545-a2ba1fc49219" data-name="Landline_or_Call_ic+_mid" viewBox="0 0 192 192"><g id="bbf6e5fb-6818-4cea-b36d-5920b90c48ec" data-name="ICON"><line x1="29.16" y1="29.15" x2="62.6" y2="78.87" fill="none" stroke="#e60000" stroke-linecap="round" stroke-linejoin="round" stroke-width="4"/><line x1="116.33" y1="130.04" x2="162.78" y2="162.8" fill="none" stroke="#e60000" stroke-linecap="round" stroke-linejoin="round" stroke-width="4"/></g><path id="fa174262-3f4d-4fbc-93f7-cd56a6233530" data-name="&lt;Pfad&gt;" d="M116.33,130l13.19-10c3.48-1.79,7.07-2.22,9.23-.89,3.28,2,30.75,20.4,33.07,22s3.38,6.25.13,10.75-18.15,22.26-24.39,22-32.21-1-80.68-49.75S18.13,49.8,18,43.63,36.08,23,40.68,19.89s9.26-1.91,10.87.32c1.82,2.54,19.73,29.93,21.7,33.07,1.34,2.15.81,5.7-1.06,9.12S62.6,78.87,62.6,78.87s5.25,9.05,23.15,27.05C94.26,114.65,116.33,130,116.33,130Z" fill="none" stroke="#666" stroke-linecap="round" stroke-linejoin="round" stroke-width="4"/><rect width="192" height="192" fill="none"/><rect width="192" height="192" fill="none"/></symbol></defs><title>landline-or-call-mid</title><g id="528c2205-80ab-476a-bea3-b798f80aa753" data-name="ICON"><use id="5382086d-b9f7-429e-824f-30d9fdc4ad32" data-name="Landline_or_Call_ic+_mid" width="192" height="192" transform="translate(0 0)" xlink:href="#e089978e-ef4f-410b-b545-a2ba1fc49219"/></g></svg>