<svg xmlns="http://www.w3.org/2000/svg" width="192" height="192" viewBox="0 0 192 192">
  <g fill="none" fill-rule="evenodd">
    <rect width="192" height="192"/>
    <g stroke-width="4" transform="translate(19 19)">
      <path stroke="#666" d="M156,78 C156,121.078528 121.077978,156 78,156 C34.9214715,156 0,121.078528 0,78 C0,34.9214715 34.9214715,0 78,0 C121.077978,0 156,34.9214715 156,78"/>
      <path stroke="#E60000" d="M35.2261005,74.1407545 C35.161954,54.6975943 45.6008415,35.9821823 58.9449634,24.8786521 C71.9612254,14.0489226 89.7917663,7.09923099 105.963818,7.04524211 C106.581143,7.04311778 107.292749,7.08287211 108.098636,7.1645051 L108.098639,7.16447089 C108.491812,7.20429771 108.778256,7.55531357 108.738429,7.94848677 C108.710012,8.22902723 108.519485,8.46672021 108.251855,8.55551559 C108.251855,8.55551559 108.251855,8.55551559 108.251855,8.55551559 C95.7022211,12.7192823 86.1656413,25.0240363 86.2110744,38.8364314 C86.2132674,39.3322477 86.2571283,39.8622202 86.3059235,40.1090265 C109.967219,45.9001607 120.708198,60.2452276 120.77399,80.0949572 C120.839233,99.9441358 105.243951,121.692842 78.8857606,121.780436 C57.5353847,121.852054 35.3231427,103.541558 35.2261005,74.1407545 Z"/>
    </g>
  </g>
</svg>
