<svg xmlns="http://www.w3.org/2000/svg" xmlns:xlink="http://www.w3.org/1999/xlink" width="192" height="192" viewBox="0 0 192 192"><defs><symbol id="0045bf63-0af4-43af-b81e-be2db26c8204" data-name="Minutes_sms_mid" viewBox="0 0 192 192"><path id="c05e886d-58ce-4e16-a75e-28ba9af9066f" data-name="&lt;Pfad&gt;" d="M116.36,130l13.19-10c3.48-1.79,7.07-2.22,9.23-.89,3.28,2,30.75,20.4,33.07,22s3.38,6.25.13,10.75-18.15,22.26-24.39,22-32.21-1-80.68-49.75S18.16,49.8,18,43.63,36.11,23,40.71,19.89,50,18,51.58,20.21c1.82,2.54,19.73,29.93,21.7,33.07,1.34,2.15.81,5.7-1.06,9.12s-9.58,16.47-9.58,16.47,5.25,9.05,23.15,27.05C94.29,114.65,116.36,130,116.36,130Z" fill="none" stroke="#666" stroke-linecap="round" stroke-linejoin="round" stroke-width="4"/><rect width="192" height="192" fill="none"/><rect width="192" height="192" fill="none"/><rect width="192" height="192" fill="none"/><g id="b7b51bfe-fe43-4046-8358-580a3a9b91cb" data-name="Text_ic_mid"><path d="M142,78l24.12,24V78H172a14,14,0,0,0,14-14V28a14,14,0,0,0-14-14H108A14,14,0,0,0,94,28V64a14,14,0,0,0,14,14Z" fill="none" stroke="#666" stroke-linecap="round" stroke-linejoin="round" stroke-width="4"/><line id="f9898a5a-768c-4b73-ae40-5d03abf9e2fa" data-name="&lt;Pfad&gt;" x1="166.03" y1="34" x2="114.03" y2="34" fill="none" stroke="#e60000" stroke-linecap="round" stroke-miterlimit="10" stroke-width="4"/><line id="fbfab1d0-1eaf-4f00-9d7e-881952b73bcb" data-name="&lt;Pfad&gt;" x1="166.03" y1="58" x2="114.03" y2="58" fill="none" stroke="#e60000" stroke-linecap="round" stroke-miterlimit="10" stroke-width="4"/></g></symbol></defs><title>minutes-sms-mid</title><g id="0e2032a4-1921-40fd-8957-07613e724a94" data-name="ICON"><use id="26f7fa0c-302d-4444-bf85-39cad395bcf0" data-name="Minutes_sms_mid" width="192" height="192" transform="translate(-0.03 0)" xlink:href="#0045bf63-0af4-43af-b81e-be2db26c8204"/></g></svg>