<svg xmlns="http://www.w3.org/2000/svg" width="192" height="192" viewBox="0 0 192 192">
  <g fill="none" fill-rule="evenodd">
    <rect width="190.021" height="192"/>
    <path stroke="#E60000" stroke-linecap="round" stroke-linejoin="round" stroke-width="4" d="M83.1340206,158 L106.886598,158"/>
    <path stroke="#666" stroke-width="4" d="M50,30.1043677 C58.7103644,35.126597 59.0437383,35.3188141 68.3970861,40.7117753 C68.3995613,40.7132031 68.3995613,40.7132031 68.4020354,40.7146327 C70.792717,42.0966973 71.6103627,45.1551124 70.2282981,47.545794 L50,82.5365048 L50,162 C50,168.627417 55.372583,174 62,174 L128,174 C134.627417,174 140,168.627417 140,162 L140,30 C140,23.372583 134.627417,18 128,18 L62,18 C55.372583,18 50,23.372583 50,30 C50,30.0368622 50,30.0715673 50,30.1043677 Z" transform="rotate(-180 95 96)"/>
    <g transform="rotate(30 -94.408 290.884)">
      <rect width="67.299" height="68"/>
      <path stroke="#666" stroke-linecap="round" stroke-linejoin="round" stroke-width="4" d="M17.814433,56.974359 L17.814433,11.025641 C17.814433,8.25005613 19.9721355,6 22.6337965,6 L38.4688481,6 L49.4845361,17.4871795 L49.4845361,56.974359 C49.4845361,59.7499439 47.3268335,62 44.6651726,62 L22.6337965,62 C19.9721355,62 17.814433,59.7499439 17.814433,56.974359 Z"/>
      <rect width="15.835" height="24" x="25.273" y="29.196" stroke="#E60000" stroke-linecap="round" stroke-linejoin="round" stroke-width="4" rx="4"/>
    </g>
  </g>
</svg>
