<svg id="e416ea56-3f92-4c9d-abbb-43ca179c5cc4" data-name="ICON" xmlns="http://www.w3.org/2000/svg" width="192" height="192" viewBox="0 0 192 192"><title>music-and-movies-mid</title><g id="3703082a-24a3-4b65-be7d-082976efd226" data-name="Apps_ic_mid"><rect width="192" height="192" fill="none"/><polyline points="113.97 157.14 114.03 94.17 134.02 118.12" fill="none" stroke="#e60000" stroke-linecap="round" stroke-linejoin="round" stroke-width="4"/><ellipse cx="98.02" cy="160.98" rx="16.56" ry="12.51" transform="translate(-54.76 50.61) rotate(-22.82)" fill="none" stroke="#e60000" stroke-linecap="round" stroke-linejoin="round" stroke-width="4"/><line x1="33.96" y1="74.16" x2="157.91" y2="74.16" fill="none" stroke="#666" stroke-linecap="round" stroke-linejoin="round" stroke-width="4"/><line x1="53.09" y1="74.16" x2="69.23" y2="58.01" fill="none" stroke="#666" stroke-linecap="round" stroke-linejoin="round" stroke-width="4"/><line x1="89.01" y1="74.16" x2="105.15" y2="58.01" fill="none" stroke="#666" stroke-linecap="round" stroke-linejoin="round" stroke-width="4"/><line x1="124.36" y1="74.16" x2="140.49" y2="58.01" fill="none" stroke="#666" stroke-linecap="round" stroke-linejoin="round" stroke-width="4"/><line x1="138.23" y1="36.05" x2="119.11" y2="23.57" fill="none" stroke="#666" stroke-linecap="round" stroke-linejoin="round" stroke-width="4"/><line x1="103.08" y1="43.44" x2="83.97" y2="30.96" fill="none" stroke="#666" stroke-linecap="round" stroke-linejoin="round" stroke-width="4"/><line x1="68.49" y1="50.72" x2="49.38" y2="38.23" fill="none" stroke="#666" stroke-linecap="round" stroke-linejoin="round" stroke-width="4"/><path d="M145.53,18.07,37.29,40.86a6.69,6.69,0,0,0-5.2,7.89L34,57.9,155.28,32.41l-1.87-9.14A6.66,6.66,0,0,0,145.53,18.07Z" transform="translate(0 0)" fill="none" stroke="#666" stroke-linecap="round" stroke-linejoin="round" stroke-width="4"/><path d="M98,130.22l-57.62-.05A6.39,6.39,0,0,1,34,123.83V58.12h124v65.71a6.4,6.4,0,0,1-6.44,6.34l-21.48.05" transform="translate(0 0)" fill="none" stroke="#666" stroke-linecap="round" stroke-linejoin="round" stroke-width="4"/></g></svg>