<svg id="45c11a27-5fe2-4bb1-b114-218d8cdfd76d" data-name="Layer 2" xmlns="http://www.w3.org/2000/svg" width="192" height="192" viewBox="0 0 192 192"><title>notifications-muted-mid</title><polyline points="192 0 192 192 0 192 0 0" fill="none"/><path id="29cc42e0-d8e4-4776-80f1-fa8c658d2398" data-name="93ff4d18-3497-45db-b877-d4ab9e8b4a69" d="M33.41,158.59" fill="none" stroke="#333" stroke-linecap="round" stroke-linejoin="round" stroke-width="8"/><circle cx="96" cy="168" r="4" fill="none" stroke="#e60000" stroke-linecap="round" stroke-linejoin="round" stroke-width="8"/><circle cx="96" cy="168" r="2.5" fill="none" stroke="#e60000" stroke-linecap="round" stroke-linejoin="round" stroke-width="8"/><circle cx="96" cy="168" r="1" fill="none" stroke="#e60000" stroke-linecap="round" stroke-linejoin="round" stroke-width="8"/><path d="M96.22,33.91c-16.06,0-23.28,7.71-24.09,8.44-5.23,4.72-7.53,10.3-8.47,17.39l-.18,5.81-.37,11.6A104.86,104.86,0,0,1,53,118.38c-.62,1.22-1.11,2.57-1.77,3.74h0c-.43.77-.85,1.63-1.3,2.38a29.62,29.62,0,0,1-4.64,6h0c-5.63,5.64-8.26,8.65-10.3,16.13l-.81,2.67A3.77,3.77,0,0,0,38,154H154a3.77,3.77,0,0,0,3.82-4.72l-.81-2.67c-2-7.48-4.67-10.49-10.3-16.13a29.62,29.62,0,0,1-4.64-6c-.45-.75-.87-1.61-1.3-2.38-.66-1.17-1.15-2.53-1.76-3.75a104.77,104.77,0,0,1-10.15-41.22l-.36-11.64-.18-5.72c-.94-7.11-1.8-12.71-7-17.44C120.49,41.62,112.27,33.91,96.22,33.91Z" fill="none" stroke="#666" stroke-linecap="round" stroke-linejoin="round" stroke-width="4"/><path d="M107.9,35V29.91A11.84,11.84,0,0,0,96,17.91a12,12,0,0,0-12,12V35" fill="none" stroke="#666" stroke-linecap="round" stroke-linejoin="round" stroke-width="4"/><line id="d25cc928-4f2b-4609-acd3-710a4def1673" data-name="93ff4d18-3497-45db-b877-d4ab9e8b4a69" x1="34.01" y1="173.81" x2="158.41" y2="49.41" fill="none" stroke="#e60000" stroke-linecap="round" stroke-linejoin="round" stroke-width="4"/></svg>