<svg id="3eb2a091-8dc9-40ee-a702-c3ac57b54733" data-name="52637905-796a-4d5f-8c9a-2d7ef3bb029e" xmlns="http://www.w3.org/2000/svg" width="112" height="160" viewBox="0 0 112 160"><title>payg-plans-mid</title><path d="M120,98H72a2,2,0,0,1,0-4h48a2,2,0,0,1,0,4Z" transform="translate(-40 -16)" fill="#e60000"/><path d="M96,122a2,2,0,0,1-2-2V72a2,2,0,0,1,4,0v48A2,2,0,0,1,96,122Z" transform="translate(-40 -16)" fill="#e60000"/><path d="M136,176H56a16,16,0,0,1-16-16V32c0-7.78,8.22-16,16-16h58a2,2,0,0,1,1.41.59l36,36A2,2,0,0,1,152,54V160A16,16,0,0,1,136,176ZM56,20c-5.5,0-12,6.5-12,12V160a12,12,0,0,0,12,12h80a12,12,0,0,0,12-12V54.83L113.17,20Z" transform="translate(-40 -16)" fill="#666"/><path d="M150,56H118a6,6,0,0,1-6-6V18h4V50a2,2,0,0,0,2,2h32Z" transform="translate(-40 -16)" fill="#666"/></svg>