<svg id="31817279-aa64-4a7d-850c-52cdf24cb3da" data-name="ICON" xmlns="http://www.w3.org/2000/svg" width="192" height="192" viewBox="0 0 192 192"><title>price-tag-mid</title><g id="cfcfc8a0-777e-4a94-a373-d8194c7b331d" data-name="Business_ic_mid"><rect width="192" height="192" fill="none"/></g><path d="M155.8,93.82l0-49.8a8,8,0,0,0-8-8L98,36a8,8,0,0,0-5.66,2.34L25.47,105.16a8,8,0,0,0,0,11.31l49.83,49.83a8,8,0,0,0,11.31,0l66.84-66.84A8,8,0,0,0,155.8,93.82Z" transform="translate(0 0)" fill="none" stroke="#666" stroke-linecap="round" stroke-linejoin="round" stroke-width="4"/><circle cx="128.17" cy="64" r="11.75" fill="none" stroke="#666" stroke-linecap="round" stroke-linejoin="round" stroke-width="4"/><line x1="128.17" y1="64" x2="171.83" y2="20.33" fill="none" stroke="#e60000" stroke-linecap="round" stroke-miterlimit="10" stroke-width="4"/></svg>