<svg xmlns="http://www.w3.org/2000/svg" xmlns:xlink="http://www.w3.org/1999/xlink" width="192" height="192" viewBox="0 0 192 192"><defs><symbol id="d221f70d-0fec-45a5-8b93-d53d5e54a086" data-name="Settings_ic_mid" viewBox="0 0 192 192"><path id="c132b186-655c-4c0f-8d3a-e567d84cbef4" data-name="&lt;Pfad&gt;" d="M136.74,142.18,151,150.37a4,4,0,0,0,5.48-1.42L172,122.79a4,4,0,0,0-1.44-5.5l-16.23-9.35a57.83,57.83,0,0,0,.22-22.64L171,76.06a4,4,0,0,0,1.5-5.48L157.12,44.26a4,4,0,0,0-5.47-1.47L135.36,52a59.94,59.94,0,0,0-20-11.48V22a4,4,0,0,0-4-4H80.49a4,4,0,0,0-4,4V40.42a59.92,59.92,0,0,0-19.8,11.22l-16-9.2a4,4,0,0,0-5.48,1.42L19.62,70a4,4,0,0,0,1.44,5.5L37.15,84.8a57.81,57.81,0,0,0,0,22.52L21,116.41a4,4,0,0,0-1.5,5.48l15.33,26.31a4,4,0,0,0,5.47,1.47l16.37-9.23a59.94,59.94,0,0,0,19.75,11.18V170a4,4,0,0,0,4,4h30.9a4,4,0,0,0,4-4V151.56C123.83,150.23,131,147.14,136.74,142.18Z" fill="none" stroke="#666" stroke-linecap="round" stroke-linejoin="round" stroke-width="4"/><path id="ea24c713-4cd8-4acd-994e-727c787d10d8" data-name="&lt;Pfad&gt;" d="M125.94,94a30,30,0,1,1-28-28A30,30,0,0,1,125.94,94Z" fill="none" stroke="#e60000" stroke-linecap="round" stroke-linejoin="round" stroke-width="4"/><rect width="192" height="192" fill="none"/></symbol></defs><title>settings-mid</title><g id="6a70fcd8-2022-4b7f-9de4-416f2818d206" data-name="ICON"><use id="ae8a029f-e99a-4a0e-acf1-cd057fa8d1b6" data-name="Settings_ic_mid" width="192" height="192" transform="translate(0 0)" xlink:href="#d221f70d-0fec-45a5-8b93-d53d5e54a086"/></g></svg>