<svg id="7a8502d0-095b-4d11-88d4-2559b2232cb7" data-name="ICON" xmlns="http://www.w3.org/2000/svg" width="192" height="192" viewBox="0 0 192 192"><title>sim-swap-mid</title><g id="b715a4b8-47dd-44da-875c-07ff8ae4bd93" data-name="Business_ic_mid"><rect width="192" height="192" fill="none"/><rect x="54" y="70" width="36" height="60" rx="6" ry="6" fill="none" stroke="#e60000" stroke-linejoin="round" stroke-width="4"/><path d="M110,86h22a6,6,0,0,1,6,6v48a6,6,0,0,1-6,6H108a6,6,0,0,1-1-.08" transform="translate(0 0)" fill="none" stroke="#e60000" stroke-linejoin="round" stroke-width="4"/></g><g id="ef3c58d4-82aa-408b-a80f-3614415690b1" data-name="sim_swap"><path id="96bb9b54-2b83-46c3-bf4e-85970f4b25ae" data-name="&lt;Pfad&gt;" d="M110,54v0a12,12,0,0,0-3.52-8.48l-16-16h0A12,12,0,0,0,82,26H46A12,12,0,0,0,34,38V138a12,12,0,0,0,12,12H98a12,12,0,0,0,12-12Z" transform="translate(0 0)" fill="none" stroke="#676767" stroke-linecap="round" stroke-linejoin="round" stroke-width="4"/><path id="acfbffcf-66b0-4774-ab03-4fa6c471c192" data-name="&lt;Pfad&gt;" d="M82,151v3a12,12,0,0,0,12,12h52a12,12,0,0,0,12-12V70a12,12,0,0,0-3.52-8.48l-16-16h0A12,12,0,0,0,130,42H103" transform="translate(0 0)" fill="none" stroke="#676767" stroke-linecap="round" stroke-linejoin="round" stroke-width="4"/></g></svg>