<svg xmlns="http://www.w3.org/2000/svg" xmlns:xlink="http://www.w3.org/1999/xlink" width="192" height="192" viewBox="0 0 192 192"><defs><symbol id="06b9cabd-d8cd-4a86-b9f5-8f43e957c23f" data-name="Text_ic_mid" viewBox="0 0 192 192"><rect width="192" height="192" fill="none"/><path d="M49.5,109.75" fill="none" stroke="#fecb00" stroke-linecap="round" stroke-linejoin="round" stroke-width="4"/><path d="M74,110H60.24L37.88,134V110H32A14,14,0,0,1,18,96V56A14,14,0,0,1,32,42h72a14,14,0,0,1,14,14V78" fill="none" stroke="#666" stroke-linejoin="round" stroke-width="4"/><path d="M130,150l24.12,24V150H160a14,14,0,0,0,14-14V92a14,14,0,0,0-14-14H88A14,14,0,0,0,74,92v44a14,14,0,0,0,14,14Z" fill="none" stroke="#666" stroke-linecap="round" stroke-linejoin="round" stroke-width="4"/><line id="a9f0c6d9-1e36-437c-a8c1-8abca19b76a9" data-name="&lt;Pfad&gt;" x1="150" y1="102" x2="98" y2="102" fill="none" stroke="#e60000" stroke-linecap="round" stroke-miterlimit="10" stroke-width="4"/><line id="8af5a606-adb1-40bc-bae0-e3ba7e8c1d8f" data-name="&lt;Pfad&gt;" x1="150" y1="126" x2="98" y2="126" fill="none" stroke="#e60000" stroke-linecap="round" stroke-miterlimit="10" stroke-width="4"/></symbol></defs><title>sms-mid</title><g id="0cee4856-7b2e-45b0-a3e7-35573b6bf389" data-name="ICON"><use id="b293e255-83bc-4cc7-ada3-75846d6dff5e" data-name="Text_ic_mid" width="192" height="192" transform="translate(0 0)" xlink:href="#06b9cabd-d8cd-4a86-b9f5-8f43e957c23f"/></g></svg>